Mono16.sfdir
StartChar: exclam
Encoding: 33 33 56
Width: 1152
VWidth: 0
Flags: W
HStem: 0 256<448 704> 1516 20G<472 680>
VStem: 448 256<0 256> 472 208<1169 1536> 512 128<512 879.002>
LayerCount: 4
Back
Fore
SplineSet
640 512 m 1xc8
 512 512 l 1xc8
 472 1536 l 1
 680 1536 l 5xd0
 640 512 l 1xc8
EndSplineSet
Refer: 68 46 N 1 0 0 1 64 0 2
Layer: 2
Layer: 3
EndChar
StartChar: numbersign
Encoding: 35 35 58
Width: 1152
VWidth: 0
Flags: W
HStem: 0 21G<234 365.216 618 749.216> 388 120<128 261 406 645 790 1024> 1028 120<128 362 507 746 891 1024> 1516 20G<402.784 534 786.784 918>
VStem: 261 128<508 721.511> 379 128<814.489 1028> 645 128<508 721.511> 763 128<814.489 1028>
LayerCount: 4
Back
SplineSet
640 -380 m 29
 896 1916 l 1053
256 -380 m 29
 512 1916 l 1053
1024 1148 m 5
 1024 1028 l 5
 128 1028 l 5
 128 1148 l 5
 1024 1148 l 5
1024 508 m 5
 1024 388 l 5
 128 388 l 5
 128 508 l 5
 1024 508 l 5
EndSplineSet
Fore
SplineSet
891 1028 m 1xf5
 891 838 773 698 773 508 c 1
 1024 508 l 1
 1024 388 l 1
 790 388 l 1
 747 0 l 1
 618 0 l 1
 661 388 l 1
 406 388 l 1
 363 0 l 1
 234 0 l 1
 277 388 l 1
 128 388 l 1
 128 508 l 1
 261 508 l 1xfa
 261 698 379 838 379 1028 c 1
 128 1028 l 1
 128 1148 l 1
 362 1148 l 1
 405 1536 l 1
 534 1536 l 1
 491 1148 l 1
 746 1148 l 1
 789 1536 l 1
 918 1536 l 1
 875 1148 l 1
 1024 1148 l 1
 1024 1028 l 1
 891 1028 l 1xf5
763 1028 m 1xf1
 507 1028 l 1xf5
 507 838 389 698 389 508 c 1
 645 508 l 1xfa
 645 698 763 838 763 1028 c 1xf1
EndSplineSet
Layer: 2
Layer: 3
EndChar
StartChar: dollar
Encoding: 36 36 59
Width: 1152
VWidth: 0
Flags: W
HStem: -13.497 120.594<244.549 512 640 756.218> 1427.57 120.976<394.727 512 640 858.357>
VStem: 132 128<1017.53 1300.24> 512 128<-128 -10.9585 108.836 762.861 902.927 1427.57 1543.76 1664> 912 128<265.054 621.356>
LayerCount: 4
Back
Fore
SplineSet
640 -128 m 1
 512 -128 l 1
 512 -13.4969772022 l 1
 389.378232273 -4.53116165308 245.76806163 26.8879282579 128 54 c 1
 128 178 l 1
 241.676887294 150.416637642 395.177454203 117.243986917 512 107.097187792 c 1
 512 780.689805204 l 1
 459.539751743 788.565419772 405.469623754 799.977415415 352 824 c 0
 232 878 132 998 132 1152 c 0
 132 1341.05779991 264.680187184 1521.61045962 512 1548.54911446 c 1
 512 1664 l 1
 640 1664 l 1
 640 1548.60818921 l 1
 755.117621647 1537.18108769 894.010371222 1499.06577301 1004 1468 c 1
 1004 1343 l 1
 894.921181329 1374.4014781 751.016397161 1414.6801631 640 1427.72173365 c 1
 640 884.246540515 l 1
 693.164700388 876.056427558 746.366788372 864.847033924 796 842 c 0
 945 773 1040 634 1040 444 c 0
 1040 199.179273416 879.898686143 15.3495235384 640 -12.3719596159 c 1
 640 -128 l 1
640 108.8357135 m 1
 807.867774462 135.064933244 912 265.685392071 912 444 c 0
 912 583 851 682 740 734 c 0
 709.146233956 748.284150946 675.517565145 756.692037207 640 762.860948358 c 1
 640 108.8357135 l 1
512 1427.5734441 m 1
 341.120772087 1402.56413809 260 1275.67571712 260 1152 c 0
 260 1049 328 967 408 932 c 0
 440.198708416 918.037728209 475.320374437 909.434212026 512 902.927337438 c 1
 512 1427.5734441 l 1
EndSplineSet
Layer: 2
Layer: 3
EndChar
StartChar: quotesingle
Encoding: 39 39 62
Width: 1152
VWidth: 0
Flags: W
HStem: 1024 640<512 640>
VStem: 512 128<1024 1664>
LayerCount: 4
Back
Fore
SplineSet
512 1664 m 5
 640 1664 l 1
 640 1024 l 5
 512 1024 l 5
 512 1664 l 5
EndSplineSet
Layer: 2
Layer: 3
EndChar
StartChar: parenleft
Encoding: 40 40 63
Width: 1152
VWidth: 0
Flags: W
VStem: 368 128<311.953 1094.8>
LayerCount: 4
Back
SplineSet
808 1818 m 4
 566.047950459 1500.40876422 431.782807855 1102.2554823 432 703 c 4
 432.216829483 304.4111843 566.451955807 -92.939069952 808 -410 c 1028
  Spiro
    808 1818 {
    432 703 o
    808 -410 o
    0 0 z
  EndSpiro
EndSplineSet
Fore
SplineSet
777 -256 m 5
 629 -256 l 5
 460 34 368 368 368 703 c 4
 368 1039 459 1374 629 1664 c 5
 777 1664 l 5
 596 1379 496 1041 496 703 c 4
 496 365 596 28 777 -256 c 5
EndSplineSet
Layer: 2
Layer: 3
EndChar
StartChar: asterisk
Encoding: 42 42 65
Width: 1152
VWidth: 0
Flags: W
HStem: 1074 540
VStem: 306 540
LayerCount: 4
Back
Fore
SplineSet
576 1432 m 5
 758 1614 l 5
 846 1526 l 5
 664 1344 l 5
 846 1162 l 5
 758 1074 l 5
 576 1256 l 5
 394 1074 l 5
 306 1162 l 5
 488 1344 l 5
 306 1526 l 5
 394 1614 l 5
 576 1432 l 5
EndSplineSet
Layer: 2
Layer: 3
EndChar
StartChar: plus
Encoding: 43 43 66
Width: 1152
VWidth: 0
Flags: W
HStem: 516 120<256 512 640 896>
VStem: 512 128<256 516 636 896>
LayerCount: 4
Back
Fore
SplineSet
640 636 m 5
 896 636 l 5
 896 516 l 5
 640 516 l 5
 640 256 l 5
 512 256 l 5
 512 516 l 5
 256 516 l 5
 256 636 l 5
 512 636 l 5
 512 896 l 5
 640 896 l 5
 640 636 l 5
EndSplineSet
Layer: 2
Layer: 3
EndChar
StartChar: comma
Encoding: 44 44 67
Width: 1152
VWidth: 0
Flags: W
HStem: -384 640<384 512>
VStem: 384 128<-384 -312.32>
LayerCount: 5
Back
Fore
SplineSet
384 256 m 1
 640 256 l 1
 512 -384 l 1
 384 -384 l 1
 384 256 l 1
EndSplineSet
Layer: 2
Layer: 3
Layer: 4
EndChar
StartChar: hyphen
Encoding: 45 45 55
Width: 1152
VWidth: 0
Flags: W
HStem: 516 120<256 896>
VStem: 256 640<516 636>
LayerCount: 4
Back
Fore
SplineSet
256 636 m 5
 896 636 l 5
 896 516 l 5
 256 516 l 5
 256 636 l 5
EndSplineSet
Layer: 2
Layer: 3
EndChar
StartChar: period
Encoding: 46 46 68
Width: 1152
VWidth: 0
Flags: W
HStem: 0 256<384 640>
VStem: 384 256<0 256>
LayerCount: 4
Back
Fore
SplineSet
384 256 m 5
 640 256 l 5
 640 0 l 5
 384 0 l 5
 384 256 l 5
EndSplineSet
Layer: 2
Layer: 3
EndChar
StartChar: slash
Encoding: 47 47 69
Width: 1152
VWidth: 0
Flags: W
LayerCount: 5
Back
SplineSet
0 -640 m 29
 1152 2048 l 1053
EndSplineSet
Fore
SplineSet
1056 1664 m 1
 234 -256 l 1
 96 -256 l 1
 918 1664 l 1
 1056 1664 l 1
EndSplineSet
Layer: 2
Layer: 3
Layer: 4
EndChar
StartChar: zero
Encoding: 48 48 70
Width: 1152
VWidth: 0
Flags: W
HStem: -16 120<461.851 690.149> 1432 120<461.851 690.149>
VStem: 256 128<190.118 1345.88> 768 128<190.118 1345.88>
LayerCount: 4
Back
SplineSet
512 896 m 5
 640 896 l 5
 640 640 l 5
 512 640 l 5
 512 896 l 5
EndSplineSet
Fore
SplineSet
576 1432 m 0
 505 1432 414 1385 390 1249 c 0
 384 1215 384 1156 384 1104 c 0
 384 432 l 0
 384 380 384 321 390 287 c 0
 414 151 505 104 576 104 c 0
 647 104 738 151 762 287 c 0
 768 321 768 380 768 432 c 0
 768 1104 l 0
 768 1156 768 1215 762 1249 c 0
 738 1385 647 1432 576 1432 c 0
576 1552 m 0
 700 1552 854 1471 888 1267 c 0
 896 1219 896 1185 896 1104 c 0
 896 432 l 0
 896 351 896 317 888 269 c 0
 854 65 700 -16 576 -16 c 0
 452 -16 298 65 264 269 c 0
 256 317 256 351 256 432 c 0
 256 1104 l 0
 256 1185 256 1219 264 1267 c 0
 298 1471 452 1552 576 1552 c 0
EndSplineSet
Layer: 2
SplineSet
576 1492 m 0
 617.450591796 1492 658.827514353 1480.85798434 694.750753164 1460.17774079 c 0
 730.673991975 1439.49749723 760.947598833 1409.38800221 782.803326276 1374.16757152 c 0
 804.65905372 1338.94714083 818.044903209 1298.87844519 824.862689374 1257.99239191 c 0
 831.68047554 1217.10633864 832 1175.4505918 832 1134 c 2
 832 402 l 2
 832 360.549408204 831.68047554 318.893661356 824.862689374 278.007608085 c 0
 818.044903209 237.121554814 804.65905372 197.05285917 782.803326276 161.832428477 c 0
 760.947598833 126.611997785 730.673991975 96.5025027698 694.750753164 75.8222592125 c 0
 658.827514353 55.1420156551 617.450591796 43.9999999999 576 44 c 0
 534.549408204 44 493.172485647 55.1420156553 457.249246836 75.8222592127 c 0
 421.326008025 96.5025027701 391.052401167 126.611997785 369.196673724 161.832428478 c 0
 347.34094628 197.05285917 333.955096791 237.121554815 327.137310626 278.007608085 c 0
 320.31952446 318.893661356 320 360.549408204 320 402 c 2
 320 1134 l 2
 320 1175.4505918 320.31952446 1217.10633864 327.137310626 1257.99239191 c 0
 333.955096791 1298.87844519 347.34094628 1338.94714083 369.196673724 1374.16757152 c 0
 391.052401167 1409.38800222 421.326008025 1439.49749723 457.249246836 1460.17774079 c 0
 493.172485647 1480.85798434 534.549408204 1492 576 1492 c 0
  Spiro
    576 1492 o
    832 1134 [
    832 402 ]
    576 44 o
    320 402 [
    320 1134 ]
    0 0 z
  EndSpiro
EndSplineSet
Layer: 3
EndChar
StartChar: one
Encoding: 49 49 71
Width: 1152
VWidth: 0
Flags: W
HStem: 0 128<256 512 640 896> 1388 20G<486.902 640>
VStem: 512 128<128 1258>
LayerCount: 5
Back
Fore
SplineSet
512 1408 m 1
 640 1408 l 1
 640 128 l 1
 896 128 l 1
 896 0 l 1
 256 0 l 1
 256 128 l 1
 512 128 l 1
 512 1258 l 1
 502 1258 l 1
 256 1063.30481283 l 1
 256 1204 l 1
 512 1408 l 1
EndSplineSet
Layer: 2
Layer: 3
Layer: 4
EndChar
StartChar: four
Encoding: 52 52 74
Width: 1152
VWidth: 0
Flags: HW
HStem: 0 21G<768 896> 388 120<269 768 896 1024> 1388 20G<321.046 456.206 768 896>
VStem: 325.207 130.999<1339.08 1408> 768 128<0 388 508 1408>
LayerCount: 5
Back
SplineSet
1024 448 m 29
 174 448 l 29
 384 1408 l 1053
832 0 m 29
 832 1408 l 1053
EndSplineSet
Fore
SplineSet
896 0 m 1
 768 0 l 1
 768 388 l 1
 256 388 l 1
 256 460 l 1
 392.206054688 1408 l 1
 520.206054688 1408 l 1
 387 508 l 1
 768 508 l 1
 768 1408 l 1
 896 1408 l 1
 896 508 l 1
 1024 508 l 1
 1024 388 l 1
 896 388 l 1
 896 0 l 1
EndSplineSet
Layer: 2
Layer: 3
Layer: 4
EndChar
StartChar: six
Encoding: 54 54 76
Width: 1152
VWidth: 0
Flags: W
HStem: -16 120<472.699 711.301> 921 115<471.277 712.209> 1432 120<474.703 765.594>
VStem: 256 128<204.505 820.248 915 1333.98> 800 128<203.654 818.712>
LayerCount: 4
Back
SplineSet
592 892 m 0
 617.6640625 892 644.254882812 890.015625 671.155273438 884.71875 c 0
 721.141601562 874.876953125 769.504882812 853.041015625 809.163085938 818.774414062 c 0
 848.576171875 784.71875 876.086914062 741.81640625 893.735351562 697.001953125 c 0
 928.400390625 608.974609375 928 518.540039062 928 438 c 0
 928 357.4609375 928.399414062 267.024414062 893.735351562 178.998046875 c 0
 876.086914062 134.18359375 848.576171875 91.2802734375 809.163085938 57.2255859375 c 0
 769.50390625 22.958984375 721.14453125 1.1240234375 671.154296875 -8.71875 c 0
 644.251953125 -14.015625 617.665039062 -16 592 -16 c 0
 566.3359375 -16 539.74609375 -14.015625 512.846679688 -8.7197265625 c 0
 462.853515625 1.1240234375 414.49609375 22.9580078125 374.836914062 57.2255859375 c 0
 335.423828125 91.2802734375 307.913085938 134.184570312 290.264648438 178.997070312 c 0
 255.599609375 267.026367188 256 357.459960938 256 438 c 0
 256 518.5390625 255.600585938 608.974609375 290.264648438 697.000976562 c 0
 307.913085938 741.81640625 335.424804688 784.71875 374.836914062 818.774414062 c 0
 414.497070312 853.041992188 462.85546875 874.876953125 512.846679688 884.71875 c 0
 539.743164062 890.015625 566.336914062 892 592 892 c 0
  Spiro
    592 892 o
    617.924 891.291 o
    644.408 888.957 o
    671.155 884.719 o
    720.29 870.881 o
    766.91 848.888 o
    809.163 818.774 o
    844.653 782.066 o
    872.748 740.879 o
    893.735 697.002 o
    918.01 608.716 o
    926.824 521.297 o
    928 438 o
    926.823 354.703 o
    918.01 267.284 o
    893.735 178.998 o
    872.748 135.12 o
    844.653 93.9337 o
    809.163 57.2256 o
    766.91 27.1126 o
    720.291 5.11981 o
    671.154 -8.71875 o
    644.406 -12.9574 o
    617.924 -15.2908 o
    592 -16 o
    566.076 -15.2909 o
    539.593 -12.9577 o
    512.847 -8.71973 o
    463.708 5.11931 o
    417.089 27.1122 o
    374.837 57.2256 o
    339.347 93.9339 o
    311.252 135.12 o
    290.265 178.997 o
    265.99 267.284 o
    257.176 354.703 o
    256 438 o
    257.177 521.296 o
    265.99 608.716 o
    290.265 697.001 o
    311.252 740.879 o
    339.348 782.066 o
    374.837 818.774 o
    417.09 848.888 o
    463.71 870.881 o
    512.847 884.719 o
    539.592 888.957 o
    566.076 891.291 o
    0 0 z
  EndSpiro
592 772 m 0
 573.413085938 772 555.672851562 770.533203125 539.153320312 767.280273438 c 0
 510.146484375 761.5703125 482.848632812 748.909179688 461.584960938 730.536132812 c 0
 440.075195312 711.950195312 422.196289062 685.541992188 410.342773438 655.44140625 c 0
 386.004882812 593.637695312 384 518.489257812 384 438 c 0
 384 357.51171875 386.005859375 282.360351562 410.342773438 220.55859375 c 0
 422.196289062 190.458007812 440.076171875 164.048828125 461.584960938 145.46484375 c 0
 482.849609375 127.090820312 510.1484375 114.4296875 539.153320312 108.71875 c 0
 555.669921875 105.466796875 573.4140625 104 592 104 c 0
 610.584960938 104 628.33203125 105.467773438 644.845703125 108.71875 c 0
 673.853515625 114.430664062 701.150390625 127.090820312 722.415039062 145.46484375 c 0
 743.923828125 164.048828125 761.803710938 190.458984375 773.657226562 220.55859375 c 0
 797.995117188 282.361328125 800 357.510742188 800 438 c 0
 800 518.489257812 797.994140625 593.638671875 773.657226562 655.44140625 c 0
 761.803710938 685.541992188 743.923828125 711.951171875 722.415039062 730.53515625 c 0
 701.149414062 748.91015625 673.856445312 761.569335938 644.844726562 767.28125 c 0
 628.329101562 770.533203125 610.5859375 772 592 772 c 0
  Spiro
    592 772 o
    573.727 771.5 o
    556.049 769.948 o
    539.153 767.28 o
    510.904 759.309 o
    484.675 746.945 o
    461.585 730.536 o
    441.393 709.519 o
    424.1 684.131 o
    410.343 655.441 o
    392.708 589.556 o
    385.418 516.337 o
    384 438 o
    385.418 359.663 o
    392.708 286.444 o
    410.343 220.559 o
    424.101 191.869 o
    441.393 166.481 o
    461.585 145.465 o
    484.676 129.055 o
    510.905 116.69 o
    539.153 108.719 o
    556.048 106.052 o
    573.727 104.5 o
    592 104 o
    610.273 104.5 o
    627.953 106.053 o
    644.846 108.719 o
    673.096 116.691 o
    699.325 129.056 o
    722.415 145.465 o
    742.607 166.481 o
    759.899 191.869 o
    773.657 220.559 o
    791.292 286.444 o
    798.582 359.663 o
    800 438 o
    798.582 516.337 o
    791.292 589.556 o
    773.657 655.441 o
    759.899 684.131 o
    742.607 709.519 o
    722.415 730.535 o
    699.325 746.945 o
    673.097 759.309 o
    644.845 767.281 o
    627.951 769.948 o
    610.273 771.5 o
    0 0 z
  EndSpiro
EndSplineSet
Fore
SplineSet
800 512 m 4
 800 734.868263473 775 921 592 921 c 4
 409 921 384 734.868263473 384 512 c 4
 384 289.676646707 409 104 592 104 c 4
 775 104 800 289.676646707 800 512 c 4
592 -16 m 4
 436 -16 333.9438357 76.1604694139 290 209 c 4
 256 311.77992278 256 417.239382239 256 512 c 6
 256 1120 l 6
 256 1180 256.016014567 1290.99042437 317 1393 c 4
 372 1485 468 1552 616 1552 c 4
 665.947382915 1552 717.336979416 1545.65426022 768 1537.14544614 c 5
 768 1415.23894649 l 5
 716.029332605 1424.66471274 663.667374381 1432 616 1432 c 4
 520 1432 464.685055825 1393.19634008 428 1334 c 4
 384 1263 384 1167 384 1120 c 6
 384 915 l 5
 394 915 l 5
 449.456140351 991 512.561403509 1036 612 1036 c 4
 760 1036 851.228740547 933.136752644 898 791 c 4
 928 699.830708661 928 598.775590551 928 512 c 4
 928 417.239257812 927.99970012 311.780372638 894 209 c 4
 850.056640625 76.16015625 748 -16 592 -16 c 4
EndSplineSet
Layer: 2
SplineSet
592 832 m 0
 569.874895287 832 547.70834884 830.274090451 526 826 c 0
 486.50116661 818.223195423 448.672479248 800.975355015 418.211237247 774.655224613 c 0
 387.749995247 748.33509421 365.054448574 713.678980584 350.303913428 676.22156154 c 0
 320.802843137 601.30672345 320 518.514260316 320 438 c 1
 320 357.485739683 320.802843138 274.693276549 350.30391343 199.778438459 c 0
 365.054448575 162.321019415 387.749995249 127.664905789 418.211237248 101.344775387 c 0
 448.672479248 75.024644985 486.50116661 57.7768045771 526 50 c 0
 547.70834884 45.7259095488 569.874895287 44 592 44 c 0
 614.125104713 44 636.29165116 45.7259095488 658 50 c 0
 697.49883339 57.7768045772 735.327520752 75.0246449851 765.788762753 101.344775387 c 0
 796.250004753 127.66490579 818.945551426 162.321019416 833.696086572 199.77843846 c 0
 863.197156863 274.69327655 864.000000001 357.485739684 864 438 c 0
 864 518.514260317 863.197156862 601.306723451 833.69608657 676.221561541 c 0
 818.945551425 713.678980585 796.250004751 748.335094211 765.788762752 774.655224613 c 0
 735.327520752 800.975355015 697.49883339 818.223195423 658 826 c 0
 636.29165116 830.274090451 614.125104713 832 592 832 c 0
  Spiro
    592 832 o
    526 826 o
    320 438 o
    526 50 o
    592 44 o
    658 50 o
    864 438 o
    658 826 o
    0 0 z
  EndSpiro
EndSplineSet
Layer: 3
EndChar
StartChar: seven
Encoding: 55 55 77
Width: 1152
VWidth: 0
Flags: W
HStem: 0 21G<363 498.003> 1416 120<226 790.92>
VStem: 363 129<0 47.0944>
LayerCount: 4
Back
Fore
SplineSet
226 1416 m 5
 226 1536 l 5
 926 1536 l 1
 926 1446 l 1
 492 0 l 1
 363 0 l 1
 791 1406 l 1
 790.919921875 1416 l 1
 226 1416 l 5
EndSplineSet
Layer: 2
Layer: 3
EndChar
StartChar: eight
Encoding: 56 56 78
Width: 1152
VWidth: 0
InSpiro: 1
Flags: W
HStem: -16 120<438.869 713.079> 772 120<448.149 703.852> 1432 120<450.682 701.316>
VStem: 224 128<203.212 671.582> 239 128<979.969 1340.62> 785 128<980.041 1340.62> 800 128<203.211 674.162>
LayerCount: 4
Back
SplineSet
576 1552 m 0
 602.588867188 1552 629.782226562 1549.42089844 656.86328125 1543.359375 c 0
 699.840820312 1533.74023438 740.924804688 1515.24804688 776.305664062 1488.26660156 c 0
 811.563476562 1461.37792969 839.362304688 1427.66601562 859.899414062 1390.99511719 c 0
 900.59375 1318.32910156 913 1237.57910156 913 1162 c 0
 913 1086.42089844 900.59375 1005.66992188 859.899414062 933.004882812 c 0
 839.362304688 896.334960938 811.5625 862.622070312 776.305664062 835.734375 c 0
 740.924804688 808.751953125 699.841796875 790.260742188 656.862304688 780.640625 c 0
 629.782226562 774.579101562 602.588867188 772 576 772 c 0
 549.411132812 772 522.217773438 774.579101562 495.13671875 780.640625 c 0
 452.159179688 790.260742188 411.075195312 808.751953125 375.694335938 835.734375 c 0
 340.436523438 862.622070312 312.637695312 896.333984375 292.100585938 933.004882812 c 0
 251.40625 1005.67089844 239 1086.42089844 239 1162 c 0
 239 1237.57910156 251.40625 1318.33007812 292.100585938 1390.99511719 c 0
 312.637695312 1427.66503906 340.4375 1461.37890625 375.694335938 1488.26660156 c 0
 411.075195312 1515.24804688 452.158203125 1533.73925781 495.137695312 1543.359375 c 0
 522.217773438 1549.42089844 549.411132812 1552 576 1552 c 0
  Spiro
    576 1552 o
    602.737 1551.11 o
    629.798 1548.29 o
    656.863 1543.36 o
    699.027 1530.81 o
    739.204 1512.38 o
    776.306 1488.27 o
    809.054 1459.28 o
    836.96 1426.5 o
    859.899 1391 o
    891.729 1316.2 o
    908.286 1238.73 o
    913 1162 o
    908.286 1085.27 o
    891.729 1007.8 o
    859.899 933.005 o
    836.96 897.498 o
    809.054 864.723 o
    776.306 835.734 o
    739.204 811.618 o
    699.027 793.188 o
    656.862 780.641 o
    629.798 775.71 o
    602.737 772.891 o
    576 772 o
    549.263 772.891 o
    522.202 775.71 o
    495.137 780.641 o
    452.973 793.188 o
    412.796 811.618 o
    375.694 835.734 o
    342.946 864.723 o
    315.04 897.498 o
    292.101 933.005 o
    260.271 1007.8 o
    243.714 1085.27 o
    239 1162 o
    243.714 1238.73 o
    260.271 1316.2 o
    292.101 1391 o
    315.04 1426.5 o
    342.946 1459.28 o
    375.694 1488.27 o
    412.796 1512.38 o
    452.973 1530.81 o
    495.138 1543.36 o
    522.202 1548.29 o
    549.263 1551.11 o
    0 0 z
  EndSpiro
576 1432 m 0
 558.252929688 1432 541.047851562 1430.26367188 524.862304688 1426.640625 c 0
 500.033203125 1421.08300781 476.338867188 1410.33007812 456.467773438 1395.17578125 c 0
 436.47265625 1379.92773438 418.846679688 1359.16894531 405.430664062 1335.21289062 c 0
 378.220703125 1286.62597656 367 1225.39257812 367 1162 c 0
 367 1098.60839844 378.220703125 1037.37402344 405.430664062 988.788085938 c 0
 418.846679688 964.83203125 436.473632812 944.072265625 456.467773438 928.82421875 c 0
 476.338867188 913.669921875 500.032226562 902.91796875 524.86328125 897.360351562 c 0
 541.047851562 893.737304688 558.252929688 892 576 892 c 0
 593.747070312 892 610.952148438 893.737304688 627.137695312 897.360351562 c 0
 651.966796875 902.91796875 675.661132812 913.669921875 695.532226562 928.82421875 c 0
 715.52734375 944.072265625 733.153320312 964.831054688 746.569335938 988.787109375 c 0
 773.779296875 1037.375 785 1098.60742188 785 1162 c 0
 785 1225.39257812 773.779296875 1286.62597656 746.569335938 1335.21191406 c 0
 733.153320312 1359.16796875 715.526367188 1379.92773438 695.532226562 1395.17578125 c 0
 675.661132812 1410.33105469 651.967773438 1421.08300781 627.13671875 1426.640625 c 0
 610.952148438 1430.26269531 593.747070312 1432 576 1432 c 0
  Spiro
    576 1432 o
    558.469 1431.42 o
    541.353 1429.64 o
    524.862 1426.64 o
    500.535 1419.39 o
    477.492 1408.82 o
    456.468 1395.18 o
    437.349 1378.2 o
    420.166 1358 o
    405.431 1335.21 o
    383.391 1282.85 o
    370.909 1224.22 o
    367 1162 o
    370.909 1099.78 o
    383.391 1041.15 o
    405.431 988.788 o
    420.166 966.005 o
    437.349 945.805 o
    456.468 928.824 o
    477.491 915.179 o
    500.535 904.611 o
    524.863 897.36 o
    541.353 894.363 o
    558.469 892.583 o
    576 892 o
    593.531 892.583 o
    610.647 894.363 o
    627.138 897.36 o
    651.465 904.611 o
    674.508 915.179 o
    695.532 928.824 o
    714.651 945.805 o
    731.834 966.004 o
    746.569 988.787 o
    768.609 1041.15 o
    781.091 1099.78 o
    785 1162 o
    781.091 1224.22 o
    768.609 1282.85 o
    746.569 1335.21 o
    731.834 1358 o
    714.651 1378.19 o
    695.532 1395.18 o
    674.509 1408.82 o
    651.465 1419.39 o
    627.137 1426.64 o
    610.647 1429.64 o
    593.531 1431.42 o
    0 0 z
  EndSpiro
576 892 m 0
 601.772460938 892 628.295898438 889.940429688 654.99609375 884.75 c 0
 705.192382812 874.990234375 753.708984375 853.693359375 794.252929688 820.604492188 c 0
 834.5859375 787.6875 864.125 745.9375 884.127929688 701.607421875 c 0
 923.548828125 614.247070312 928 521.76171875 928 438 c 0
 928 354.239257812 923.548828125 261.752929688 884.127929688 174.392578125 c 0
 864.124023438 130.0625 834.587890625 88.3134765625 794.252929688 55.3955078125 c 0
 753.708007812 22.306640625 705.194335938 1.009765625 654.99609375 -8.75 c 0
 628.29296875 -13.94140625 601.771484375 -16 576 -16 c 0
 550.228515625 -16 523.706054688 -13.94140625 497.00390625 -8.75 c 0
 446.806640625 1.009765625 398.291015625 22.306640625 357.748046875 55.39453125 c 0
 317.412109375 88.314453125 287.875976562 130.061523438 267.872070312 174.392578125 c 0
 228.451171875 261.752929688 224 354.239257812 224 438 c 0
 224 521.760742188 228.451171875 614.247070312 267.872070312 701.607421875 c 0
 287.875976562 745.938476562 317.413085938 787.6875 357.748046875 820.60546875 c 0
 398.290039062 853.692382812 446.807617188 874.990234375 497.00390625 884.75 c 0
 523.705078125 889.94140625 550.2265625 892 576 892 c 0
  Spiro
    576 892 o
    601.975 891.275 o
    628.403 888.933 o
    654.996 884.75 o
    704.351 871.153 o
    751.33 849.747 o
    794.253 820.604 o
    831.001 785.013 o
    860.926 744.804 o
    884.128 701.607 o
    913.003 613.141 o
    925.392 524.069 o
    928 438 o
    925.392 351.932 o
    913.003 262.859 o
    884.128 174.393 o
    860.926 131.196 o
    831.002 90.9876 o
    794.253 55.3955 o
    751.33 26.2531 o
    704.352 4.84743 o
    654.996 -8.75 o
    628.401 -12.9337 o
    601.974 -15.2755 o
    576 -16 o
    550.026 -15.2755 o
    523.598 -12.9337 o
    497.004 -8.75 o
    447.649 4.8474 o
    400.67 26.2528 o
    357.748 55.3945 o
    320.998 90.9875 o
    291.074 131.196 o
    267.872 174.393 o
    238.997 262.859 o
    226.608 351.932 o
    224 438 o
    226.608 524.068 o
    238.997 613.141 o
    267.872 701.607 o
    291.074 744.804 o
    320.999 785.013 o
    357.748 820.605 o
    400.67 849.747 o
    447.649 871.152 o
    497.004 884.75 o
    523.598 888.934 o
    550.024 891.276 o
    0 0 z
  EndSpiro
576 772 m 0
 557.525390625 772 539.73046875 770.502929688 522.99609375 767.25 c 0
 492.981445312 761.4140625 464.555664062 748.673828125 441.791015625 730.094726562 c 0
 418.819335938 711.34765625 399.362304688 685.005859375 385.756835938 654.854492188 c 0
 357.958984375 593.250976562 352 517.666015625 352 438 c 0
 352 358.333984375 357.958984375 282.75 385.756835938 221.146484375 c 0
 399.362304688 190.995117188 418.8203125 164.651367188 441.791015625 145.904296875 c 0
 464.5546875 127.327148438 492.982421875 114.584960938 522.99609375 108.75 c 0
 539.729492188 105.49609375 557.5234375 104 576 104 c 0
 594.4765625 104 612.271484375 105.49609375 629.00390625 108.75 c 0
 659.016601562 114.584960938 687.446289062 127.327148438 710.208007812 145.903320312 c 0
 733.1796875 164.65234375 752.637695312 190.995117188 766.243164062 221.146484375 c 0
 794.041015625 282.75 800 358.333984375 800 438 c 0
 800 517.666015625 794.041015625 593.250976562 766.243164062 654.854492188 c 0
 752.63671875 685.005859375 733.181640625 711.346679688 710.208007812 730.095703125 c 0
 687.4453125 748.672851562 659.018554688 761.4140625 629.00390625 767.25 c 0
 612.268554688 770.50390625 594.475585938 772 576 772 c 0
  Spiro
    576 772 o
    557.784 771.492 o
    540.052 769.925 o
    522.996 767.25 o
    493.69 759.162 o
    466.266 746.674 o
    441.791 730.095 o
    420.098 708.98 o
    401.209 683.569 o
    385.757 654.854 o
    364.665 589.027 o
    354.569 515.863 o
    352 438 o
    354.569 360.137 o
    364.665 286.974 o
    385.757 221.146 o
    401.209 192.432 o
    420.098 167.02 o
    441.791 145.904 o
    466.266 129.326 o
    493.691 116.837 o
    522.996 108.75 o
    540.052 106.074 o
    557.783 104.507 o
    576 104 o
    594.217 104.507 o
    611.949 106.074 o
    629.004 108.75 o
    658.309 116.837 o
    685.734 129.326 o
    710.208 145.903 o
    731.901 167.02 o
    750.791 192.432 o
    766.243 221.146 o
    787.335 286.974 o
    797.431 360.137 o
    800 438 o
    797.431 515.863 o
    787.335 589.027 o
    766.243 654.854 o
    750.791 683.568 o
    731.902 708.98 o
    710.208 730.096 o
    685.734 746.673 o
    658.31 759.162 o
    629.004 767.25 o
    611.947 769.926 o
    594.216 771.493 o
    0 0 z
  EndSpiro
EndSplineSet
Fore
SplineSet
785 1162 m 0xec
 785 1308.53391055 725.785306361 1432 576 1432 c 0
 426.211795702 1432 367 1308.53798565 367 1162 c 0
 367 1015.46665346 426.215111596 892 576 892 c 0
 725.787783356 892 785 1015.46260332 785 1162 c 0xec
239 1162 m 0
 239 1375.50343328 351.895013025 1552 576 1552 c 0
 800.098159736 1552 913 1375.52766391 913 1162 c 0xec
 913 1025.63504469 865.257326993 904.366504305 755.275390625 834.5390625 c 5
 905.177716564 741.512337639 928 602.519388945 928 438 c 0
 928 354.239257812 923.549142521 261.752787818 884.127929688 174.392578125 c 0
 834.881297725 65.2585412511 731.886409784 -16 576 -16 c 0
 419.692688292 -16 317.51072594 64.3887329929 267.872070312 174.392578125 c 0
 228.451171875 261.752929688 224 354.239257812 224 438 c 0xf2
 224 602.598581473 246.690735585 744.179512301 396.955078125 834.360351562 c 1
 286.821917995 904.155264126 239 1025.50700427 239 1162 c 0
576 772 m 0
 393.049522 772 352 618.802562451 352 438 c 0
 352 257.202774626 393.045025439 104 576 104 c 0
 758.95125662 104 800 257.198130071 800 438 c 0xf2
 800 618.796934439 758.955726942 772 576 772 c 0
EndSplineSet
Layer: 2
SplineSet
576 1492 m 0
 736.81350708 1492 849 1380.08010864 849 1219 c 0
 849 1057.91989136 736.81350708 946 576 946 c 0
 415.18649292 946 303 1057.91989136 303 1219 c 0
 303 1380.08010864 415.18649292 1492 576 1492 c 0
576 1378 m 0
 736.81350708 1378 849 1266.08010864 849 1105 c 0
 849 943.919891357 736.81350708 832 576 832 c 0
 415.18649292 832 303 943.919891357 303 1105 c 0
 303 1266.08010864 415.18649292 1378 576 1378 c 0
576 620 m 0
 745.649680398 620 864 501.930930398 864 332 c 0
 864 162.069069602 745.649680398 44 576 44 c 0
 406.350319602 44 288 162.069069602 288 332 c 0
 288 501.930930398 406.350319602 620 576 620 c 0
  Spiro
    576 620 o
    725.939 583.167 o
    827.105 482.063 o
    864 332 o
    827.105 181.937 o
    725.939 80.8329 o
    576 44 o
    426.061 80.8329 o
    324.895 181.937 o
    288 332 o
    324.895 482.063 o
    426.061 583.167 o
    0 0 z
  EndSpiro
576 832 m 0
 745.649414062 832 864 713.930664062 864 544 c 0
 864 374.069335938 745.649414062 256 576 256 c 0
 406.350585938 256 288 374.069335938 288 544 c 0
 288 713.930664062 406.350585938 832 576 832 c 0
  Spiro
    576 832 o
    725.939 795.167 o
    827.105 694.063 o
    864 544 o
    827.105 393.937 o
    725.939 292.833 o
    576 256 o
    426.061 292.833 o
    324.895 393.937 o
    288 544 o
    324.895 694.063 o
    426.061 795.167 o
    0 0 z
  EndSpiro
EndSplineSet
Layer: 3
SplineSet
576 1492 m 0
 553.830237553 1492 531.609198257 1489.95387905 510 1485 c 0
 476.651540711 1477.35491146 444.983297537 1462.12203112 418.753004602 1440.15526422 c 0
 392.522711667 1418.18849731 371.914332047 1389.97868609 356.6078086 1359.38003488 c 0
 325.994761706 1298.18273247 313.913019076 1229.55127295 303 1162 c 0
 296.851044356 1123.93814212 291.633700769 1085.56076646 291.806195769 1047.00580665 c 0
 291.978690769 1008.45084684 298.215997024 969.309094013 315.518904362 934.854427011 c 0
 332.821811688 900.399760007 361.659366919 871.687484585 396.733527959 855.677553053 c 0
 431.807688998 839.667621521 471.492953011 837.070748211 510 839 c 0
 531.998883283 840.102171901 553.973523917 842 576 842 c 0
 598.026476083 842 620.001116717 840.102171901 642 839 c 0
 680.507046992 837.0707482 720.192311009 839.667621498 755.266472056 855.677553021 c 0
 790.340633104 871.687484544 819.178188346 900.39975996 836.481095684 934.854426962 c 0
 853.784003018 969.309093975 860.021309266 1008.45084681 860.193804258 1047.00580663 c 0
 860.366299249 1085.56076644 855.148955653 1123.93814212 849 1162 c 0
 838.086980924 1229.55127295 826.005238294 1298.18273247 795.3921914 1359.38003488 c 0
 780.085667953 1389.97868609 759.477288332 1418.18849731 733.246995398 1440.15526422 c 0
 707.016702463 1462.12203112 675.348459289 1477.35491146 642 1485 c 0
 620.390801743 1489.95387905 598.169762447 1492 576 1492 c 0
  Spiro
    576 1492 o
    510 1485 o
    303 1162 o
    510 839 o
    576 842 o
    642 839 o
    849 1162 o
    642 1485 o
    0 0 z
  EndSpiro
576 832 m 0
 553.875672053 832 531.717665744 830.222426049 510 826 c 0
 469.894089665 818.20246584 431.422837147 801.183529164 399.769557643 775.350304832 c 0
 368.116278139 749.5170805 343.619187013 715.471374038 326.814356636 678.230492487 c 0
 293.204695881 603.748729384 288 519.713782992 288 438 c 0
 288 356.286217007 293.204695881 272.251270615 326.814356637 197.769507512 c 0
 343.619187014 160.528625961 368.11627814 126.482919499 399.769557643 100.649695167 c 0
 431.422837147 74.8164708356 469.894089666 57.7975341597 510 50 c 0
 531.717665744 45.7775739512 553.875672053 44 576 44 c 0
 598.124327947 44 620.282334256 45.7775739512 642 50 c 0
 682.105910335 57.7975341597 720.577162853 74.8164708358 752.230442357 100.649695168 c 0
 783.883721861 126.4829195 808.380812987 160.528625962 825.185643364 197.769507513 c 0
 858.795304119 272.251270616 864 356.286217008 864 438 c 0
 864 519.713782993 858.795304119 603.748729385 825.185643363 678.230492488 c 0
 808.380812986 715.471374039 783.88372186 749.517080501 752.230442357 775.350304833 c 0
 720.577162853 801.183529164 682.105910334 818.20246584 642 826 c 0
 620.282334256 830.222426049 598.124327947 832 576 832 c 0
  Spiro
    576 832 o
    510 826 o
    288 438 o
    510 50 o
    576 44 o
    642 50 o
    864 438 o
    642 826 o
    0 0 z
  EndSpiro
EndSplineSet
EndChar
StartChar: nine
Encoding: 57 57 79
Width: 1152
VWidth: 0
Flags: W
HStem: -16 120<260.158 677.227> 496 120<428.095 685.463> 1304 120<428.518 691.381>
VStem: 224 128<700.253 1219.51> 768 128<202.021 621 700.891 1219.11>
LayerCount: 5
Back
Fore
SplineSet
560 1424 m 0
 718 1424 820 1341 864 1224 c 0
 889 1157 896 1087 896 993 c 2
 896 416 l 2
 896 356 896 245 835 143 c 0
 780 51 684 -16 536 -16 c 0
 443 -16 345 6 256 23 c 1
 256 146 l 1
 344 129 448 104 536 104 c 0
 632 104 687 143 724 202 c 0
 768 273 768 369 768 416 c 2
 768 621 l 1
 758 621 l 1
 703 536 638 496 540 496 c 0
 392 496 295 579 252 696 c 0
 224 773 224 858 224 960 c 0
 224 1042 224 1137 256 1224 c 0
 299 1341 402 1424 560 1424 c 0
560 1304 m 0
 373 1304 352 1147 352 960 c 0
 352 773 373 616 560 616 c 0
 747 616 768 773 768 960 c 0
 768 1147 747 1304 560 1304 c 0
EndSplineSet
Layer: 2
Layer: 3
Layer: 4
EndChar
StartChar: less
Encoding: 60 60 82
Width: 1152
VWidth: 0
Flags: W
VStem: 256 639
LayerCount: 4
Back
SplineSet
136 67 m 5
 857 576 l 5
 136 1085 l 1029
EndSplineSet
Fore
Refer: 84 62 S -1 0 0 1 1151 0 2
Layer: 2
Layer: 3
EndChar
StartChar: equal
Encoding: 61 61 83
Width: 1152
VWidth: 0
Flags: W
HStem: 388 120<256 896> 644 120<256 896>
VStem: 256 640<388 508 644 764>
LayerCount: 4
Back
Fore
SplineSet
256 508 m 5
 896 508 l 5
 896 388 l 5
 256 388 l 5
 256 508 l 5
256 764 m 1
 896 764 l 1
 896 644 l 1
 256 644 l 1
 256 764 l 1
EndSplineSet
Layer: 2
Layer: 3
EndChar
StartChar: greater
Encoding: 62 62 84
Width: 1152
VWidth: 0
Flags: W
VStem: 256 639
LayerCount: 4
Back
Fore
SplineSet
256 227 m 5
 751 571 l 5
 751 581 l 5
 256 925 l 5
 256 1075 l 5
 895 624 l 5
 895 528 l 5
 256 77 l 5
 256 227 l 5
EndSplineSet
Layer: 2
Layer: 3
EndChar
StartChar: A
Encoding: 65 65 29
Width: 1152
VWidth: 0
Flags: W
HStem: 0 21G<103 245.501 906.499 1049> 516 120<319.014 832.986> 1417 119<549.204 602.796>
VStem: 103 135<0 401.367> 914 135<0 401.367>
LayerCount: 4
Back
Fore
SplineSet
103 0 m 1
 146.618164062 541.5 239.295384615 1059 516 1536 c 1
 636 1536 l 1
 912.704699901 1059 1005.38085938 541.5 1049 0 c 1
 914 0 l 1
 898.997173913 180.849294331 879.691264109 352.941944515 853.679308631 516 c 1
 298.32059669 516 l 1
 272.308689044 352.942033273 253.002807884 180.849391071 238 0 c 1
 103 0 l 1
832.986191285 636 m 1
 778.710237031 927.734083994 699.705061913 1188.64463619 581 1417 c 1
 571 1417 l 1
 452.294851314 1188.6449168 373.289647464 927.734410973 319.013689688 636 c 1
 832.986191285 636 l 1
EndSplineSet
Layer: 2
Layer: 3
EndChar
StartChar: B
Encoding: 66 66 30
Width: 1152
VWidth: 0
Flags: W
HStem: 0 120<256 758.649> 776 120<256 679.29> 1416 120<256 676.624>
VStem: 128 128<120 776 896 1416> 784 128<1001.92 1310.62> 912 128<274.289 622.731>
LayerCount: 4
Back
SplineSet
561 896 m 6xf8
 637 896 677 898 713 906 c 4
 821 932 896 1024 896 1156 c 4
 896 1288 821 1380 713 1406 c 4
 677 1414 637 1416 561 1416 c 6
 256 1416 l 5
 256 896 l 5
 561 896 l 6xf8
1024 1156 m 4
 1024 1001 947 886 842 827 c 5
 961 752 1040 618 1040 448 c 4xf4
 1040 224 902 62 716 16 c 4
 652 0 588 0 503 0 c 6
 128 0 l 5
 128 512 128 1024 128 1536 c 5
 561 1536 l 6
 638 1536 690 1536 745 1523 c 4
 904 1485 1024 1350 1024 1156 c 4
256 776 m 5
 256 120 l 5
 503 120 l 6
 584 120 639 121 684 132 c 4
 819 165 912 285 912 448 c 4
 912 611 819 731 684 764 c 4
 639 775 584 776 503 776 c 6
 256 776 l 5
EndSplineSet
Fore
SplineSet
449 896 m 2xf8
 525 896 564.92277327 897.314741713 601 906 c 0
 709 932 784 1024 784 1156 c 0
 784 1288 709 1382 601 1406 c 0
 565 1414 525 1416 449 1416 c 2
 256 1416 l 1
 256 896 l 1
 449 896 l 2xf8
912 1156 m 0
 912 1016.95541401 844.907514451 913.611464968 753 861 c 5
 921.281124498 800.203045685 1040 654.5 1040 448 c 0xf4
 1040 224 901.882948622 62.4707371554 716 16 c 0
 652 1.7763568394e-14 588 -1.04094977928e-14 503 0 c 2
 128 0 l 1
 128 512 128 1024 128 1536 c 1
 449 1536 l 2
 526 1536 578.032533136 1536.13687887 633 1523 c 0
 792 1485 912 1350 912 1156 c 0
256 776 m 1
 256 120 l 1
 503 120 l 2
 584 120 639 121 684 132 c 0
 819 165 912 285 912 448 c 0
 912 611 819 731 684 764 c 0
 639 775 584 776 503 776 c 2
 256 776 l 1
EndSplineSet
Layer: 2
SplineSet
636 1476 m 0
 826.85625 1476 960 1344.8125 960 1156 c 4
 960 967.1875 826.85625 836 636 836 c 0
 445.14375 836 312 967.1875 312 1156 c 4
 312 1344.8125 445.14375 1476 636 1476 c 0
EndSplineSet
Layer: 3
SplineSet
591 1476 m 2
 637.344591086 1476 684.119104348 1475.16033304 729.195309328 1464.39200598 c 0
 774.271514308 1453.62367893 817.181439155 1433.03380997 852.533391598 1403.06615104 c 0
 887.88534404 1373.09849212 915.433566213 1334.26472568 933.381291036 1291.53651138 c 0
 951.329015858 1248.80829709 960.000000001 1202.34459109 960 1156 c 0
 960 1109.65540891 951.329015855 1063.19170291 933.381291031 1020.46348862 c 0
 915.433566207 977.735274323 887.885344032 938.901507883 852.533391589 908.933848959 c 0
 817.181439148 878.966190035 774.271514302 858.376321073 729.195309324 847.607994019 c 0
 684.119104346 836.839666965 637.344591085 836 591 836 c 2
 192 836 l 1
 192 1476 l 1
 591 1476 l 2
  Spiro
    591 1476 ]
    960 1156 o
    591 836 [
    192 836 v
    192 1476 v
    0 0 z
  EndSpiro
EndSplineSet
EndChar
StartChar: C
Encoding: 67 67 31
Width: 1152
VWidth: 0
Flags: W
HStem: -16 120<459.97 926.662> 1432 120<462.139 925.433>
VStem: 112 128<366.47 1167.49>
LayerCount: 4
Back
SplineSet
1024 48.450724084 m 5
 1014.1672855 45.9594570527 1004.32629899 43.4827196564 994.4765625 41.0224609375 c 4
 924.672851562 23.5859375 852.91796875 6.1533203125 778.267578125 -5.22265625 c 4
 736.185546875 -11.6357421875 693.118164062 -16 647.985351562 -16 c 4
 542.921875 -15.953125 434.208984375 11.4931640625 345.131835938 75.3330078125 c 4
 289.459960938 115.231445312 244.2421875 166.692382812 210.51953125 223.89453125 c 4
 176.866210938 280.977539062 154.995117188 342.595703125 140.861328125 404.342773438 c 4
 112.80078125 526.939453125 112 650.068359375 112 768 c 4
 112 885.930664062 112.799804688 1009.05957031 140.861328125 1131.65722656 c 4
 154.994140625 1193.40429688 176.866210938 1255.0234375 210.51953125 1312.10644531 c 4
 244.2421875 1369.30761719 289.459960938 1420.76953125 345.131835938 1460.66796875 c 4
 434.302734375 1524.57421875 543.055664062 1551.9765625 648.272460938 1552 c 4
 692.859375 1552 736.290039062 1547.61914062 778.268554688 1541.22265625 c 4
 852.916015625 1529.84667969 924.673828125 1512.4140625 994.477539062 1494.97753906 c 4
 1004.32692365 1492.51716305 1014.1675862 1490.0403642 1024 1487.54907751 c 5
 1024 1363.18157634 l 5
 1003.17146409 1368.53403053 982.347089895 1373.82053606 961.522460938 1379.02246094 c 4
 892.3671875 1396.296875 824.677734375 1412.57519531 757.731445312 1422.77734375 c 4
 720.452148438 1428.45800781 683.857421875 1432 648.272460938 1432 c 4
 566.336914062 1431.98144531 485.693359375 1410.35742188 422.868164062 1365.33300781 c 4
 382.936523438 1336.71484375 348.55859375 1298.1796875 322.546875 1254.05859375 c 4
 296.465820312 1209.81835938 278.123046875 1159.38964844 266.01171875 1106.47949219 c 4
 241.586914062 999.764648438 240 885.310546875 240 768 c 4
 240 650.688476562 241.5859375 536.235351562 266.01171875 429.51953125 c 4
 278.122070312 376.611328125 296.465820312 326.182617188 322.546875 281.94140625 c 4
 348.55859375 237.8203125 382.936523438 199.28515625 422.868164062 170.66796875 c 4
 485.615234375 125.69921875 566.2890625 104.036132812 648.014648438 104 c 4
 684.088867188 104 720.36328125 107.528320312 757.732421875 113.22265625 c 4
 824.67578125 123.424804688 892.368164062 139.703125 961.5234375 156.977539062 c 4
 982.347628908 162.179090049 1003.17169294 167.465475758 1024 172.817926407 c 5
 1024 48.450724084 l 5
EndSplineSet
Fore
SplineSet
648 1552 m 4
 765 1552 886 1522 993 1496 c 1
 993 1371 l 1
 884 1398 757 1432 648 1432 c 4
 427 1432 308 1290 266 1106 c 4
 242 999 240 885 240 768 c 4
 240 564 252 403 323 282 c 4
 384 179 487 104 648 104 c 4
 767 104 905 142 1024 173 c 1
 1024 48 l 1
 908 19 769 -16 648 -16 c 4
 543 -16 434 11 345 75 c 4
 242 149 173 266 141 404 c 4
 113 527 112 650 112 768 c 4
 112 886 113 1009 141 1132 c 4
 173 1270 242 1387 345 1461 c 4
 434 1525 543 1552 648 1552 c 4
EndSplineSet
Layer: 2
SplineSet
648.272498017 1492.00006103 m 0
 688.358682622 1492.00006103 728.370987324 1488.03908839 768 1482 c 0
 838.797296313 1471.21115867 908.520152176 1454.35531645 978 1437 c 0
 1036.12288357 1422.48153071 1094.09037786 1407.34702606 1152 1392 c 1
 976 768 l 1
 1152 144 l 1
 1094.09037786 128.65297394 1036.12288357 113.518469294 978 99 c 0
 908.520152176 81.644683554 838.797296313 64.7888413321 768 54 c 0
 728.370987324 47.9609116143 688.358682622 43.9999389662 648.272498017 43.9999389662 c 0
 648.181665723 43.9999389662 648.090833049 43.9999593035 648 44 c 0
 554.605479288 44.0418441062 459.912536554 68.5957258669 384 123 c 0
 336.197901543 157.258352924 296.400590909 202.256288667 266.533135831 252.918014744 c 0
 236.665680753 303.57974082 216.558147245 359.603300918 203.436695385 416.931329517 c 0
 177.193791665 531.587386714 176 650.37899232 176 768 c 0
 176 885.62100768 177.193791665 1004.41261329 203.436695385 1119.06867048 c 0
 216.558147245 1176.39669908 236.665680753 1232.42025918 266.533135831 1283.08198526 c 0
 296.400590909 1333.74371133 336.197901543 1378.74164708 384 1413 c 0
 459.998099518 1467.46559458 554.695827954 1491.97910185 648.272498017 1492.00006103 c 0
  Spiro
    648 1492 o
    768 1482 o
    978 1437 o
    1152 1392 v
    976 768 v
    1152 144 v
    978 99 o
    768 54 o
    648 44 o
    384 123 o
    176 768 o
    384 1413 o
    0 0 z
  EndSpiro
EndSplineSet
Layer: 3
EndChar
StartChar: D
Encoding: 68 68 32
Width: 1152
VWidth: 0
Flags: W
HStem: 0 120<256 690.226> 1416 120<256 689.484>
VStem: 128 128<120 1416> 912 128<381.09 1151.49>
LayerCount: 4
Back
Fore
SplineSet
504 120 m 1
 665 120 766.903320312 195.657226562 829 298 c 0
 900 415.016601562 912 570.715820312 912 768 c 0
 912 879.461914062 909.3046875 987.904296875 886 1090 c 0
 844 1274 725 1416 504 1416 c 0
 395 1416 353 1416 256 1416 c 1
 256 120 l 1
 504 120 l 1
504 1536 m 1
 608.032226562 1535.7734375 718 1509 807 1445 c 0
 909.967773438 1370.95507812 979 1254 1011 1116 c 0
 1038.30566406 998.243164062 1040 880.813476562 1040 768 c 0
 1040 655.186523438 1039 537.59375 1011 420 c 0
 978.186523438 282.19140625 910 165 807 91 c 0
 717.971679688 27.0380859375 609 0 504 0 c 0
 384 0 275 0 128 0 c 1
 128 1536 l 1
 504 1536 l 1
EndSplineSet
Layer: 2
Layer: 3
EndChar
StartChar: E
Encoding: 69 69 33
Width: 1152
VWidth: 0
Flags: W
HStem: 0 120<384 1024> 772 120<384 896> 1416 120<384 1024>
VStem: 256 128<120 772 892 1416>
LayerCount: 4
Back
Fore
SplineSet
256 1536 m 5
 1024 1536 l 1
 1024 1416 l 1
 384 1416 l 5
 384 892 l 5
 896 892 l 1
 896 772 l 1
 384 772 l 5
 384 120 l 5
 1024 120 l 1
 1024 0 l 1
 256 0 l 5
 256 1536 l 5
EndSplineSet
Layer: 2
Layer: 3
EndChar
StartChar: F
Encoding: 70 70 34
Width: 1152
VWidth: 0
Flags: W
HStem: 0 21G<256 384> 772 120<384 896> 1416 120<384 1024>
VStem: 256 128<0 772 892 1416>
LayerCount: 4
Back
Fore
SplineSet
256 1536 m 5
 1024 1536 l 5
 1024 1416 l 5
 384 1416 l 5
 384 892 l 5
 896 892 l 5
 896 772 l 5
 384 772 l 5
 384 0 l 5
 256 0 l 5
 256 1536 l 5
EndSplineSet
Layer: 2
Layer: 3
EndChar
StartChar: G
Encoding: 71 71 35
Width: 1152
VWidth: 0
Flags: W
HStem: -16 120<446.704 892.628> 648 120<640 896> 1304 120<446.669 927.707>
VStem: 112 128<342.773 1065.2> 896 128<130.443 648>
LayerCount: 5
Back
SplineSet
643 1424 m 4
 765.651707429 1424 884.952236124 1394.67718608 994 1366.70527418 c 5
 994 1242.71900976 l 5
 880.542495955 1271.95940944 755.025860491 1304 643 1304 c 4
 430 1304 312.309419947 1187.92054939 268 1016 c 4
 243 919 240 813.350482315 240 704 c 4
 240 594.649414062 243.1745791 489.044827153 268 392 c 4
 312 220 430 104 643 104 c 4
 723.524278831 104 811.037241413 120.400617627 896 140.349059888 c 5
 896 648 l 5
 640 648 l 5
 640 768 l 5
 1024 768 l 5
 1024 49 l 5
 907 19 777 -16 643 -16 c 4
 542.661132812 -16 436.330382085 6.51015014331 347 64 c 4
 246 129 175.339592524 236.87194663 143 364 c 4
 114 478 112 594 112 704 c 4
 112 814 113.552151487 930.114863929 143 1044 c 4
 175.83902439 1171 246.37354134 1278.42320672 347 1344 c 4
 436 1402 542.661016949 1424 643 1424 c 4
EndSplineSet
Fore
SplineSet
643 1424 m 4
 765.651707429 1424 884.952236124 1394.67718608 994 1366.70527418 c 5
 994 1242.71900976 l 5
 880.542495955 1271.95940944 755.025860491 1304 643 1304 c 4
 430 1304 312.309419947 1187.92054939 268 1016 c 4
 243 919 240 813.350482315 240 704 c 4
 240 594.649414062 243.1745791 489.044827153 268 392 c 4
 312 220 430 104 643 104 c 4
 723.524278831 104 811.037241413 120.400617627 896 140.349059888 c 5
 896 648 l 5
 640 648 l 5
 640 768 l 5
 1024 768 l 5
 1024 49 l 5
 907 19 777 -16 643 -16 c 4
 542.661132812 -16 436.330382085 6.51015014331 347 64 c 4
 246 129 175.339592524 236.87194663 143 364 c 4
 114 478 112 594 112 704 c 4
 112 814 113.552151487 930.114863929 143 1044 c 4
 175.83902439 1171 246.37354134 1278.42320672 347 1344 c 4
 436 1402 542.661016949 1424 643 1424 c 4
EndSplineSet
Layer: 2
Layer: 3
Layer: 4
EndChar
StartChar: H
Encoding: 72 72 36
Width: 1152
VWidth: 0
Flags: W
HStem: 0 21G<128 256 896 1024> 772 120<256 896> 1519 20G<128 256 896 1024>
VStem: 128 128<0 772 892 1539> 896 128<0 772 892 1539>
LayerCount: 4
Back
Fore
SplineSet
128 1539 m 5
 256 1539 l 5
 256 892 l 5
 896 892 l 5
 896 1539 l 5
 1024 1539 l 5
 1024 0 l 5
 896 0 l 5
 896 772 l 5
 256 772 l 5
 256 0 l 5
 128 0 l 5
 128 1539 l 5
EndSplineSet
Layer: 2
Layer: 3
EndChar
StartChar: I
Encoding: 73 73 37
Width: 1152
VWidth: 0
Flags: W
HStem: 0 120<256 512 640 896> 1416 120<256 512 640 896>
VStem: 512 128<120 1416>
LayerCount: 4
Back
Fore
SplineSet
896 1536 m 5
 896 1416 l 5
 640 1416 l 5
 640 120 l 5
 896 120 l 5
 896 0 l 5
 256 0 l 5
 256 120 l 5
 512 120 l 5
 512 1416 l 5
 256 1416 l 5
 256 1536 l 5
 896 1536 l 5
EndSplineSet
Layer: 2
Layer: 3
EndChar
StartChar: L
Encoding: 76 76 40
Width: 1152
VWidth: 0
Flags: W
HStem: 0 120<384 1024> 1516 20G<256 384>
VStem: 256 128<120 1536>
LayerCount: 4
Back
Fore
SplineSet
256 0 m 5
 256 1536 l 5
 384 1536 l 5
 384 120 l 5
 1024 120 l 5
 1024 0 l 5
 256 0 l 5
EndSplineSet
Layer: 2
Layer: 3
EndChar
StartChar: M
Encoding: 77 77 28
Width: 1152
VWidth: 0
Flags: W
HStem: 0 21G<128 256 896 1024> 1516 20G<128 266.194 885.829 1024>
VStem: 128 128<0 1268> 896 128<0 1268>
LayerCount: 4
Back
SplineSet
192 0 m 29
 192 1521 l 29
 576 900 l 29
 960 1521 l 29
 960 0 l 1053
EndSplineSet
Fore
SplineSet
256 0 m 5
 128 0 l 5
 128 1536 l 5
 256 1536 l 5
 571 918 l 5
 581.720703125 918 l 5
 896 1536 l 5
 1024 1536 l 5
 1024 0 l 5
 896 0 l 5
 896 1268 l 5
 886 1268 l 5
 631 768 l 5
 521 768 l 5
 266 1268 l 5
 256 1268 l 5
 256 0 l 5
EndSplineSet
Layer: 2
Layer: 3
EndChar
StartChar: N
Encoding: 78 78 41
Width: 1152
VWidth: 0
Flags: W
HStem: 0 21G<128 256 885.968 1024> 1516 20G<128 265.048 896 1024>
VStem: 128 128<0 1256> 896 128<280 1536>
LayerCount: 4
Back
SplineSet
192 0 m 5
 192 1521 l 5
 960 15 l 5
 960 1536 l 1029
EndSplineSet
Fore
SplineSet
256 0 m 1
 128 0 l 1
 128 1536 l 1
 255 1536 l 1
 886 280 l 1
 896 280 l 1
 896 1536 l 1
 1024 1536 l 1
 1024 0 l 1
 896 0 l 1
 266 1256 l 1
 256 1256 l 1
 256 0 l 1
EndSplineSet
Layer: 2
Layer: 3
EndChar
StartChar: O
Encoding: 79 79 42
Width: 1152
VWidth: 0
Flags: W
HStem: -16 120<429.692 722.308> 1432 120<429.692 722.308>
VStem: 112 128<346.923 1189.08> 912 128<346.923 1189.08>
LayerCount: 4
Back
SplineSet
576 1432 m 0
 522.376953125 1432 467.46875 1414.75976562 421.672851562 1383.49707031 c 0
 380.896484375 1355.66015625 345.921875 1316.08203125 319.818359375 1270.37792969 c 0
 293.651367188 1224.5625 275.760742188 1172.2421875 264.130859375 1117.40332031 c 0
 240.672851562 1006.80273438 240 888.853515625 240 768 c 0
 240 647.146484375 240.672851562 529.196289062 264.130859375 418.598632812 c 0
 275.76171875 363.755859375 293.651367188 311.438476562 319.818359375 265.622070312 c 0
 345.922851562 219.916992188 380.896484375 180.33984375 421.672851562 152.50390625 c 0
 467.469726562 121.240234375 522.376953125 104 576 104 c 0
 629.623046875 104 684.53125 121.241210938 730.327148438 152.50390625 c 0
 771.103515625 180.33984375 806.078125 219.91796875 832.181640625 265.622070312 c 0
 858.348632812 311.4375 876.239257812 363.7578125 887.869140625 418.59765625 c 0
 911.327148438 529.197265625 912 647.145507812 912 768 c 0
 912 888.853515625 911.327148438 1006.80371094 887.869140625 1117.40234375 c 0
 876.23828125 1172.24414062 858.349609375 1224.56054688 832.181640625 1270.37792969 c 0
 806.077148438 1316.08300781 771.103515625 1355.66015625 730.327148438 1383.49609375 c 0
 684.530273438 1414.75976562 629.623046875 1432 576 1432 c 0
  Spiro
    576 1432 o
    522.387 1426.38 o
    470.07 1409.94 o
    421.673 1383.5 o
    382.981 1351.99 o
    348.734 1313.79 o
    319.818 1270.38 o
    296.356 1222.59 o
    277.906 1171.2 o
    264.131 1117.4 o
    247.46 1004.63 o
    241.04 887.602 o
    240 768 o
    241.04 648.397 o
    247.46 531.367 o
    264.131 418.599 o
    277.907 364.798 o
    296.357 313.409 o
    319.818 265.622 o
    348.734 222.209 o
    382.981 184.011 o
    421.673 152.504 o
    470.071 126.055 o
    522.387 109.616 o
    576 104 o
    629.613 109.617 o
    681.93 126.056 o
    730.327 152.504 o
    769.019 184.011 o
    803.266 222.209 o
    832.182 265.622 o
    855.644 313.408 o
    874.094 364.798 o
    887.869 418.598 o
    904.54 531.367 o
    910.96 648.397 o
    912 768 o
    910.96 887.603 o
    904.54 1004.63 o
    887.869 1117.4 o
    874.093 1171.2 o
    855.644 1222.59 o
    832.182 1270.38 o
    803.266 1313.79 o
    769.019 1351.99 o
    730.327 1383.5 o
    681.929 1409.94 o
    629.613 1426.38 o
    0 0 z
  EndSpiro
576 1552 m 0
 658.51953125 1552 739.030273438 1525.99804688 805.672851562 1480.50390625 c 0
 864.73046875 1440.1875 911.178710938 1386.28125 945.0234375 1327.02246094 c 0
 978.8046875 1267.87402344 999.96484375 1204.20996094 1013.41210938 1140.8046875 c 0
 1040.11425781 1014.90917969 1040 888.901367188 1040 768 c 0
 1040 647.098632812 1040.11425781 521.08984375 1013.41210938 395.196289062 c 0
 999.963867188 331.7890625 978.805664062 268.125976562 945.0234375 208.977539062 c 0
 911.177734375 149.71875 864.73046875 95.8125 805.672851562 55.4970703125 c 0
 739.029296875 10.001953125 658.51953125 -16 576 -16 c 0
 493.48046875 -16 412.969726562 10.001953125 346.327148438 55.4970703125 c 0
 287.26953125 95.8125 240.821289062 149.719726562 206.9765625 208.977539062 c 0
 173.194335938 268.125 152.03515625 331.791015625 138.587890625 395.1953125 c 0
 111.885742188 521.090820312 112 647.098632812 112 768 c 0
 112 888.900390625 111.885742188 1014.91015625 138.587890625 1140.80371094 c 0
 152.036132812 1204.21191406 173.194335938 1267.87304688 206.9765625 1327.02246094 c 0
 240.822265625 1386.28125 287.26953125 1440.1875 346.327148438 1480.50390625 c 0
 412.970703125 1525.99902344 493.48046875 1552 576 1552 c 0
  Spiro
    576 1552 o
    657.331 1543.59 o
    734.921 1519.23 o
    805.673 1480.5 o
    860.477 1436.01 o
    907.02 1384.14 o
    945.023 1327.02 o
    974.754 1266.61 o
    997.231 1204.06 o
    1013.41 1140.8 o
    1032.16 1015.19 o
    1039.04 890.287 o
    1040 768 o
    1039.04 645.713 o
    1032.16 520.809 o
    1013.41 395.196 o
    997.231 331.944 o
    974.754 269.393 o
    945.023 208.978 o
    907.019 151.863 o
    860.477 99.9892 o
    805.673 55.4971 o
    734.921 16.7725 o
    657.331 -7.59035 o
    576 -16 o
    494.669 -7.59035 o
    417.079 16.7725 o
    346.327 55.4971 o
    291.523 99.9894 o
    244.98 151.863 o
    206.977 208.978 o
    177.246 269.393 o
    154.769 331.944 o
    138.588 395.195 o
    119.839 520.81 o
    112.956 645.713 o
    112 768 o
    112.956 890.286 o
    119.839 1015.19 o
    138.588 1140.8 o
    154.769 1204.06 o
    177.246 1266.61 o
    206.977 1327.02 o
    244.981 1384.14 o
    291.523 1436.01 o
    346.327 1480.5 o
    417.079 1519.23 o
    494.669 1543.59 o
    0 0 z
  EndSpiro
EndSplineSet
Fore
SplineSet
576 1432 m 0
 456 1432 370 1357 320 1270 c 0
 248.368334925 1145.36090277 240 979 240 768 c 4
 240 557 248.368164062 390.638671875 320 266 c 4
 370 179 456 104 576 104 c 4
 696 104 782 179 832 266 c 4
 903.631835938 390.638671875 912 557 912 768 c 4
 912 979 903.631835938 1145.36132812 832 1270 c 0
 782 1357 696 1432 576 1432 c 0
576 1552 m 0
 689 1552 846 1499 945 1327 c 0
 1033 1175 1040 981 1040 768 c 4
 1040 555 1033 361 945 209 c 4
 846 37 689 -16 576 -16 c 4
 463 -16 306 37 207 209 c 4
 119 361 112 555 112 768 c 4
 112 981 119 1175 207 1327 c 0
 306 1499 463 1552 576 1552 c 0
EndSplineSet
Layer: 2
SplineSet
576 1492 m 4
 811.625 1492 976 1328.015625 976 1092 c 4
 976 865.425 811.625 708 576 708 c 4
 340.375 708 176 865.425 176 1092 c 4
 176 1328.015625 340.375 1492 576 1492 c 4
  Spiro
    576 1492 o
    784.248 1440.84 o
    924.757 1300.42 o
    976 1092 o
    924.757 891.915 o
    784.248 757.11 o
    576 708 o
    367.752 757.11 o
    227.243 891.915 o
    176 1092 o
    227.243 1300.42 o
    367.752 1440.84 o
    0 0 z
  EndSpiro
576 828 m 4
 811.625 828 976 670.575 976 444 c 4
 976 207.984375 811.625 44 576 44 c 4
 340.375 44 176 207.984375 176 444 c 4
 176 670.575 340.375 828 576 828 c 4
  Spiro
    576 828 o
    784.248 778.89 o
    924.757 644.085 o
    976 444 o
    924.757 235.578 o
    784.248 95.1567 o
    576 44 o
    367.752 95.1567 o
    227.243 235.578 o
    176 444 o
    227.243 644.085 o
    367.752 778.89 o
    0 0 z
  EndSpiro
EndSplineSet
Layer: 3
SplineSet
576 1492 m 4
 644.07093168 1492 711.779913356 1470.3790776 768 1432 c 4
 817.916585322 1397.9240564 858.62828117 1351.18194103 888.602753514 1298.69988286 c 4
 918.577225858 1246.21782469 938.101326532 1188.22680579 950.641039705 1129.10328242 c 4
 975.72046605 1010.85623568 975.999999999 888.87738287 976 768 c 4
 976.000000001 647.12261713 975.720466053 525.143764322 950.641039708 406.896717578 c 4
 938.101326535 347.773194206 918.57722586 289.782175311 888.602753516 237.300117139 c 4
 858.628281171 184.818058966 817.916585322 138.075943599 768 104 c 4
 711.779913355 65.6209223996 644.07093168 44 576 44 c 4
 507.92906832 44 440.220086645 65.6209223995 384 104 c 4
 334.083414678 138.075943599 293.371718829 184.818058966 263.397246485 237.300117139 c 4
 233.42277414 289.782175311 213.898673466 347.773194206 201.358960293 406.896717578 c 4
 176.279533948 525.143764322 176 647.12261713 176 768 c 4
 176 888.87738287 176.279533947 1010.85623568 201.358960292 1129.10328242 c 4
 213.898673465 1188.22680579 233.42277414 1246.21782469 263.397246484 1298.69988286 c 4
 293.371718829 1351.18194103 334.083414678 1397.9240564 384 1432 c 4
 440.220086645 1470.3790776 507.92906832 1492 576 1492 c 4
  Spiro
    576 1492 o
    768 1432 o
    976 768 o
    768 104 o
    576 44 o
    384 104 o
    176 768 o
    384 1432 o
    0 0 z
  EndSpiro
EndSplineSet
EndChar
StartChar: P
Encoding: 80 80 43
Width: 1152
VWidth: 0
Flags: W
HStem: 0 21G<256 384> 640 120<384 758.672> 1416 120<384 758.672>
VStem: 256 128<0 640 760 1416> 912 128<914.164 1261.84>
LayerCount: 4
Back
SplineSet
517 1416 m 6
 192 1416 l 5
 192 760 l 5
 517 760 l 4
 572.178710938 760 622.930664062 761.466796875 667.624023438 772.315429688 c 4
 712.389648438 783.180664062 754.599609375 803.923828125 788.678710938 833.268554688 c 4
 822.94921875 862.776367188 850.680664062 902.127929688 868.771484375 945.997070312 c 4
 886.953125 990.0859375 896 1038.91992188 896 1088 c 4
 896 1137.08007812 886.953125 1185.9140625 868.771484375 1230.00390625 c 4
 850.681640625 1273.87109375 822.947265625 1313.22460938 788.6796875 1342.73144531 c 4
 754.599609375 1372.07617188 712.389648438 1392.81835938 667.624023438 1403.68457031 c 4
 622.9296875 1414.53320312 572.177734375 1416 517 1416 c 6
  Spiro
    517 1416 [
    192 1416 v
    192 760 v
    517 760 [
    570.591 760.78 o
    621.02 764.306 o
    667.624 772.315 o
    711.289 786.409 o
    752.135 806.862 o
    788.679 833.269 o
    820.625 865.825 o
    847.606 903.871 o
    868.771 945.997 o
    883.899 991.454 o
    892.987 1039.22 o
    896 1088 o
    892.987 1136.78 o
    883.899 1184.55 o
    868.771 1230 o
    847.606 1272.13 o
    820.625 1310.18 o
    788.68 1342.73 o
    752.135 1369.14 o
    711.289 1389.59 o
    667.624 1403.68 o
    621.019 1411.69 o
    570.59 1415.22 o
    0 0 z
  EndSpiro
517 1536 m 6
 573.62890625 1536 635.748046875 1535.37890625 699.706054688 1519.85449219 c 4
 763.590820312 1504.34765625 824.619140625 1474.71972656 875.263671875 1431.11132812 c 4
 925.72265625 1387.66308594 963.625 1332.76855469 988.16015625 1273.27539062 c 4
 1012.60351562 1214.00195312 1024 1150.7265625 1024 1088 c 4
 1024 1025.2734375 1012.60351562 961.997070312 988.16015625 902.725585938 c 4
 963.625976562 843.232421875 925.720703125 788.334960938 875.264648438 744.889648438 c 4
 824.619140625 701.280273438 763.590820312 671.65234375 699.706054688 656.145507812 c 4
 635.747070312 640.62109375 573.627929688 640 517 640 c 4
 64 640 l 5
 64 1536 l 5
 517 1536 l 6
  Spiro
    517 1536 ]
    575.264 1535.27 o
    636.559 1530.93 o
    699.706 1519.85 o
    762.299 1499.67 o
    821.493 1470.02 o
    875.264 1431.11 o
    921.465 1384.15 o
    959.233 1330.93 o
    988.16 1273.28 o
    1008.3 1212.9 o
    1020.15 1150.68 o
    1024 1088 o
    1020.15 1025.32 o
    1008.3 963.102 o
    988.16 902.726 o
    959.233 845.074 o
    921.465 791.848 o
    875.265 744.89 o
    821.494 705.98 o
    762.299 676.329 o
    699.706 656.146 o
    636.558 645.067 o
    575.263 640.734 o
    517 640 ]
    64 640 v
    64 1536 v
    0 0 z
  EndSpiro
EndSplineSet
Fore
SplineSet
1040 1088 m 4
 1040 864 902 701 716 656 c 4
 652 640 590 640 503 640 c 6
 384 640 l 5
 384 0 l 5
 256 0 l 5
 256 1536 l 5
 503 1536 l 6
 590 1536 652 1536 716 1520 c 4
 902 1475 1040 1312 1040 1088 c 4
503 760 m 6
 588 760 639 761 684 772 c 4
 819 805 912 925 912 1088 c 4
 912 1251 819 1371 684 1404 c 4
 639 1415 588 1416 503 1416 c 6
 384 1416 l 5
 384 760 l 5
 503 760 l 6
EndSplineSet
Layer: 2
SplineSet
572 1476 m 4
 800.55625 1476 960 1316.93515625 960 1088 c 4
 960 859.06484375 800.55625 700 572 700 c 4
 343.44375 700 184 859.06484375 184 1088 c 4
 184 1316.93515625 343.44375 1476 572 1476 c 4
  Spiro
    572 1476 o
    774.001 1426.38 o
    910.294 1290.17 o
    960 1088 o
    910.294 885.831 o
    774.001 749.622 o
    572 700 o
    369.999 749.622 o
    233.706 885.831 o
    184 1088 o
    233.706 1290.17 o
    369.999 1426.38 o
    0 0 z
  EndSpiro
EndSplineSet
Layer: 3
SplineSet
517 1476 m 6
 572.903034518 1476 629.339292821 1474.95593565 683.66489599 1461.76965078 c 4
 737.990499158 1448.58336591 789.609774882 1423.39822133 831.972144218 1386.92111985 c 4
 874.334513552 1350.44401836 907.152850694 1303.32006314 928.465475546 1251.63910639 c 4
 949.778100397 1199.95814965 960.000000002 1143.90303452 960 1088 c 4
 960 1032.09696548 949.778100393 976.041850352 928.46547554 924.360893606 c 4
 907.152850686 872.67993686 874.334513542 825.555981637 831.972144206 789.078880155 c 4
 789.609774872 752.601778673 737.99049915 727.416634092 683.664895984 714.230349222 c 4
 629.339292817 701.044064351 572.903034516 700.000000001 517 700 c 6
 128 700 l 5
 128 1476 l 5
 517 1476 l 6
  Spiro
    517 1476 ]
    960 1088 o
    517 700 [
    128 700 v
    128 1476 v
    0 0 z
  EndSpiro
EndSplineSet
EndChar
StartChar: Q
Encoding: 81 81 44
Width: 1152
VWidth: 0
Flags: W
HStem: -400 120<730.775 1021.59> -10.4995 114.5<429.868 512.513 640.651 722.132> 1432 120<429.692 722.247>
VStem: 112 128<346.923 1189.03> 512.513 128.138<-181.984 -0.483575> 912 128<346.971 1189.08>
LayerCount: 4
Back
Fore
SplineSet
576 1432 m 0
 456 1432 370 1357 320 1270 c 0
 248.368334925 1145.36090277 240 979 240 768 c 0
 240 557 248.368476264 390.638851301 320 266 c 0
 370 179 456 104 576 104 c 0
 696 104 781.999782078 179.000125243 832 266 c 0
 903.631835938 390.638671875 912 557 912 768 c 0
 912 979 903.631523736 1145.3611487 832 1270 c 0
 782 1357 696 1432 576 1432 c 0
576 1552 m 0
 689 1552 845.566073148 1498.74951002 945 1327 c 0
 1033 1175 1040 981 1040 768 c 0
 1040 555 1032.61597048 361.221686091 945 209 c 0
 863.806599685 67.9367186438 743.601123175 6.91545568575 640.65096131 -10.4721005933 c 1
 642.651679372 -60.7547939792 650.516557759 -128.607483994 684 -182 c 0
 721 -241 776 -280 872 -280 c 0
 919.667374381 -280 972.029332605 -272.664848991 1024 -263.239257812 c 1
 1024 -385.145507812 l 1
 973.336979416 -393.654286569 921.947382915 -400 872 -400 c 0
 724 -400 628.014443156 -332.991363966 573 -241 c 0
 524.401158999 -159.736364228 514.521126959 -72.9020647743 512.512539294 -10.4995020861 c 1
 409.188644782 6.85093070624 288.659403755 67.9519389491 207 209 c 0
 119 361 112 555 112 768 c 0
 112 981 119.384029517 1174.77831391 207 1327 c 0
 306 1499 463 1552 576 1552 c 0
EndSplineSet
Layer: 2
Layer: 3
EndChar
StartChar: R
Encoding: 82 82 45
Width: 1152
VWidth: 0
Flags: W
HStem: 0 21G<128 256 764.461 912.924> 640 120<256 613.066> 1416 120<256 694.672>
VStem: 128 128<0 640 760 1416> 848 128<913.58 1261.84>
LayerCount: 4
Back
SplineSet
578.692382812 702.779296875 m 5
 701.307617188 737.220703125 l 5
 936.923722056 0 l 5
 803.300723207 0 l 5
 578.692382812 702.779296875 l 5
EndSplineSet
Fore
SplineSet
439 760 m 2
 524 760 575 761 620 772 c 0
 755 805 848 925 848 1088 c 0
 848 1251 755 1371 620 1404 c 0
 575 1415 524 1416 439 1416 c 2
 256 1416 l 1
 256 760 l 1
 439 760 l 2
612 650 m 1
 560 640 503.046333825 640 439 640 c 2
 256 640 l 1
 256 0 l 1
 128 0 l 1
 128 1536 l 1
 439 1536 l 2
 526 1536 587.880180974 1535.51285944 652 1520 c 0
 838 1475 976 1312 976 1088 c 0
 976 879.640313706 859.359633537 742.068030901 725 681 c 1
 912.923828125 0 l 1
 769.30078125 0 l 1
 612 650 l 1
EndSplineSet
Layer: 2
SplineSet
439 760 m 6
 524 760 575 761 620 772 c 4
 755 805 848 925 848 1088 c 4
 848 1251 755 1371 620 1404 c 4
 575 1415 524 1416 439 1416 c 6
 256 1416 l 5
 256 760 l 5
 439 760 l 6
534.4140625 641.071289062 m 5
 505.526367188 640 474.323242188 640 439 640 c 6
 256 640 l 5
 256 0 l 5
 128 0 l 5
 128 1536 l 5
 439 1536 l 6
 526 1536 588 1536 652 1520 c 4
 838 1475 976 1312 976 1088 c 4
 976 868.202148438 843.12890625 707.13671875 662.416992188 658.657226562 c 5
 912.923828125 0 l 5
 769.30078125 0 l 5
 534.4140625 641.071289062 l 5
EndSplineSet
Layer: 3
EndChar
StartChar: S
Encoding: 83 83 46
Width: 1152
VWidth: 0
Flags: W
HStem: -16 120<260.035 752.871> 1432 120<396.011 837.024>
VStem: 132 128<1017.61 1301.22> 912 128<266.337 621.356>
LayerCount: 4
Back
SplineSet
128 177.760982853 m 5
 182.006173174 164.409417853 236.391919605 152.428902772 291.0703125 141.735351562 c 4
 339.833007812 132.198242188 388.482421875 123.508789062 437.069335938 116.252929688 c 4
 485.086914062 109.081054688 531.352539062 103.760742188 575.6328125 103.999023438 c 4
 629.03125 104.286132812 680.858398438 113.408203125 726.19140625 133.470703125 c 4
 771.50390625 153.524414062 812.428710938 185.614257812 842.81640625 225.737304688 c 4
 888.13671875 285.57421875 911.94921875 364.659179688 912 444.03515625 c 4
 912.0390625 506.513671875 897.362304688 568.4375 867.7890625 619.53125 c 4
 838.66015625 669.856445312 792.720703125 710.430664062 740.409179688 733.861328125 c 4
 690.82421875 756.071289062 631.08203125 765.473632812 565.469726562 773.80859375 c 4
 499.212890625 782.225585938 424.80078125 791.484375 352.442382812 823.846679688 c 4
 289.036132812 852.20703125 232.48046875 897.059570312 193.045898438 955.60546875 c 4
 153.79296875 1013.88183594 133.265625 1082.26171875 132.009765625 1150.97167969 c 4
 130.02734375 1259.33496094 176.4140625 1365.93066406 257.298828125 1439.93945312 c 4
 300.841796875 1479.78027344 352.888671875 1509.20800781 408.354492188 1527.51757812 c 4
 463.798828125 1545.81933594 521.157226562 1552.63964844 576.791015625 1551.99511719 c 4
 624.467773438 1551.44335938 670.4921875 1545.63867188 714.615234375 1538.00292969 c 4
 757.97265625 1530.50195312 800.346679688 1521.1171875 841.909179688 1511.11621094 c 4
 896.401101585 1498.00576362 950.404174634 1483.64828738 1004 1468.47676798 c 5
 1004 1342.97907288 l 5
 939.486536317 1361.73937517 874.893846112 1379.29147708 810.090820312 1394.8828125 c 4
 770.153320312 1404.49316406 730.626953125 1413.20605469 691.384765625 1419.99609375 c 4
 651.5546875 1426.88867188 612.727539062 1431.5703125 575.208984375 1432.00488281 c 4
 531.795898438 1432.50683594 489.482421875 1427.07617188 450.864257812 1414.328125 c 4
 412.267578125 1401.58789062 376.23828125 1381.08691406 346.701171875 1354.06152344 c 4
 292.26953125 1304.25683594 258.619140625 1228.046875 259.990234375 1153.02832031 c 4
 260.861328125 1105.40136719 275.525390625 1057.90527344 301.274414062 1019.67578125 c 4
 326.841796875 981.717773438 364.749023438 951.299804688 407.557617188 932.15234375 c 4
 456.876953125 910.094726562 516.68359375 901.103515625 582.657226562 892.721679688 c 4
 649.275390625 884.258789062 723.52734375 874.416992188 795.590820312 842.137695312 c 4
 872.923828125 807.499023438 938.259765625 749.3828125 980.29296875 676.764648438 c 4
 1021.88183594 604.912109375 1040.05078125 523.541992188 1040 443.963867188 c 4
 1039.93554688 343.134765625 1010.6640625 240.079101562 947.18359375 156.263671875 c 4
 904.204101562 99.515625 846.64453125 54.0791015625 780.833984375 24.9541015625 c 4
 715.045898438 -4.1611328125 644.484375 -15.6328125 576.3671875 -15.9990234375 c 4
 520.838867188 -16.2978515625 467.627929688 -9.8251953125 416.930664062 -2.2529296875 c 4
 365.78125 5.38671875 315.133789062 14.4453125 264.9296875 24.2646484375 c 4
 219.126136769 33.2225238712 173.466102193 43.0605431301 128 53.8285258009 c 5
 128 177.760982853 l 5
EndSplineSet
Fore
SplineSet
128 178 m 5
 264 145 457 104 576 104 c 4
 781 104 912 244 912 444 c 4
 912 583 851 682 740 734 c 4
 632 784 490 762 352 824 c 4
 232 878.165137615 132 998 132 1152 c 4
 132 1357 288.000000064 1551.99034693 577 1552 c 4
 701.012499458 1552.00414222 873 1505 1004 1468 c 5
 1004 1343 l 5
 872 1381 689 1432 575 1432 c 4
 361 1432 260 1290.49462366 260 1152 c 4
 260 1049.48868778 328 966.841628959 408 932 c 4
 521 883 670 900 796 842 c 4
 945 773 1040 634 1040 444 c 4
 1040 178 851 -16 576 -16 c 4
 442 -16 267 22 128 54 c 5
 128 178 l 5
EndSplineSet
Layer: 2
SplineSet
576 1492 m 0
 799.84375 1492 956 1352.61328125 956 1152 c 0
 956 960.82734375 799.84375 828 576 828 c 0
 352.15625 828 196 960.82734375 196 1152 c 0
 196 1352.61328125 352.15625 1492 576 1492 c 0
  Spiro
    576 1492 o
    773.836 1448.52 o
    907.319 1329.16 o
    956 1152 o
    907.319 983.178 o
    773.836 869.437 o
    576 828 o
    378.164 869.437 o
    244.681 983.178 o
    196 1152 o
    244.681 1329.16 o
    378.164 1448.52 o
    0 0 z
  EndSpiro
576 828 m 0
 811.625 828 976 670.575 976 444 c 0
 976 207.984375 811.625 44 576 44 c 0
 340.375 44 176 207.984375 176 444 c 0
 176 670.575 340.375 828 576 828 c 0
  Spiro
    576 828 o
    784.248 778.89 o
    924.757 644.085 o
    976 444 o
    924.757 235.578 o
    784.248 95.1567 o
    576 44 o
    367.752 95.1567 o
    227.243 235.578 o
    176 444 o
    227.243 644.085 o
    367.752 778.89 o
    0 0 z
  EndSpiro
EndSplineSet
Layer: 3
SplineSet
79 128 m 0
 144.860588117 111.003856186 211.246434623 96.0555536526 278 83 c 0
 327.483504171 73.3220968052 377.132090147 64.4478562137 427 57 c 0
 476.357437043 49.628383759 526.095841658 43.7311178054 576 44 c 0
 636.758154282 44.3273632179 697.952045302 54.6229576957 753.513049028 79.2122916306 c 0
 809.074052754 103.801625566 858.316094515 142.564975929 895 191 c 0
 949.400334674 262.826635813 975.942539274 353.897509894 976 444 c 0
 976.045296253 515.027734129 959.621972186 586.674204072 924.04088754 648.147185801 c 0
 888.459802895 709.620167531 832.821965963 758.964611318 768 788 c 0
 707.176186159 815.244515803 640.178695533 824.866376528 574.06323514 833.265535329 c 0
 507.947774747 841.664694129 440.838866483 850.789114373 380 878 c 0
 326.892396189 901.752989113 279.661379729 939.388533546 247.160422961 987.641097039 c 0
 214.659466193 1035.89366053 197.063869612 1093.83222322 196 1152 c 0
 194.32299843 1243.69117328 234.341931065 1335.09305935 302 1397 c 0
 338.539569039 1430.43360175 382.578378801 1455.398611 429.609670137 1470.92289735 c 0
 476.640961472 1486.4471837 526.476097447 1492.57350436 576 1492 c 0
 618.597207112 1491.50670923 661.023665176 1486.26310569 703 1479 c 0
 744.299481518 1471.85400928 785.249746059 1462.80454796 826 1453 c 0
 907.302361752 1433.43857821 987.880858423 1410.95091651 1068 1387 c 1024
  Spiro
    79 128 {
    278 83 o
    427 57 o
    576 44 o
    895 191 o
    976 444 o
    768 788 o
    380 878 o
    196 1152 o
    302 1397 o
    576 1492 o
    703 1479 o
    826 1453 o
    1068 1387 o
    0 0 z
  EndSpiro
EndSplineSet
EndChar
StartChar: T
Encoding: 84 84 47
Width: 1152
VWidth: 0
Flags: W
HStem: 0 21G<512 640> 1416 120<128 512 640 1024>
VStem: 512 128<0 1416>
LayerCount: 4
Back
Fore
SplineSet
1024 1536 m 5
 1024 1416 l 5
 640 1416 l 5
 640 0 l 5
 512 0 l 5
 512 1416 l 5
 128 1416 l 5
 128 1536 l 5
 1024 1536 l 5
EndSplineSet
Layer: 2
Layer: 3
EndChar
StartChar: V
Encoding: 86 86 49
Width: 1152
VWidth: 0
Flags: W
HStem: 0 119<552.645 599.355> 1516 20G<103 261.17 890.83 1049>
VStem: 103 135<1134.63 1536> 914 135<1134.63 1536>
LayerCount: 4
Back
Fore
SplineSet
103 1536 m 5
 238 1536 l 5
 284.340820312 977.390625 371.736170213 502.327167631 571 119 c 5
 581 119 l 5
 780.263829787 502.327918896 867.659179688 977.391601562 914 1536 c 5
 1049 1536 l 5
 1005.38085938 994.5 912.704699901 477 636 0 c 5
 516 0 l 5
 239.295384615 477 146.618164062 994.5 103 1536 c 5
EndSplineSet
Layer: 2
Layer: 3
EndChar
StartChar: W
Encoding: 87 87 50
Width: 1152
VWidth: 0
Flags: W
HStem: 0 21G<257 386.593 765.407 895> 1003 20G<509.474 642.526> 1516 20G<116 247 905 1036>
VStem: 116 131<1078.31 1536> 905 131<1078.31 1536>
LayerCount: 4
Back
Fore
SplineSet
514 1023 m 1
 638 1023 l 1
 822 210 l 1
 832 210 l 5
 897.963855422 618.877149877 905 1074.995086 905 1536 c 1
 1036 1536 l 1
 1036 1021.16438356 988.377483444 509.33072407 895 2 c 1
 770 0 l 1
 581 823 l 1
 571 823 l 1
 382 0 l 1
 257 2 l 1
 163.622516556 509.33072407 116 1021.16438356 116 1536 c 1
 247 1536 l 1
 247 1074.995086 254.036144578 618.877149877 320 210 c 1
 330 210 l 1
 514 1023 l 1
EndSplineSet
Layer: 2
Layer: 3
EndChar
StartChar: X
Encoding: 88 88 51
Width: 1152
VWidth: 0
Flags: W
HStem: 0 21G<89 247.152 904.848 1063> 1516 20G<121 277.439 874.561 1031>
LayerCount: 4
Back
Fore
SplineSet
571 894 m 1
 581 894 l 1
 884 1536 l 1
 1031 1536 l 1
 660 781 l 1
 660 771 l 1
 1063 0 l 1
 915 0 l 1
 581 658 l 1
 571 658 l 1
 237 0 l 1
 89 0 l 1
 492 771 l 1
 492 781 l 1
 121 1536 l 1
 268 1536 l 1
 571 894 l 1
EndSplineSet
Layer: 2
Layer: 3
EndChar
StartChar: Y
Encoding: 89 89 52
Width: 1152
VWidth: 0
Flags: W
HStem: 0 21G<512 640> 1516 20G<103 261.17 890.83 1049>
VStem: 103 135<1317.38 1536> 512 128<0 683.162> 914 135<1317.38 1536>
CounterMasks: 1 38
LayerCount: 4
Back
Fore
SplineSet
103 1536 m 1
 238 1536 l 1
 284.340820312 1229.69126014 371.736170213 969.194219654 571 759 c 1
 581 759 l 1
 780.263829787 969.194631604 867.659179688 1229.69179563 914 1536 c 1
 1049 1536 l 1
 1005.59172033 1221.65198344 913.599572241 921.168938177 640 644.036952149 c 1
 640 0 l 1
 512 0 l 1
 512 644.036953309 l 1
 238.400501807 921.168939016 146.407307763 1221.65198388 103 1536 c 1
EndSplineSet
Layer: 2
Layer: 3
EndChar
StartChar: Z
Encoding: 90 90 53
Width: 1152
VWidth: 0
Flags: W
HStem: 0 120<283 1024> 1416 120<148 848.92>
LayerCount: 4
Back
Fore
SplineSet
148 1416 m 5
 148 1536 l 5
 1004 1536 l 5
 1004 1446 l 5
 283.080078125 130 l 5
 283 120 l 5
 1024 120 l 5
 1024 0 l 5
 128 0 l 5
 128 92 l 5
 849 1406 l 5
 848.919921875 1416 l 5
 148 1416 l 5
EndSplineSet
Layer: 2
Layer: 3
EndChar
StartChar: bracketleft
Encoding: 91 91 87
Width: 1152
VWidth: 0
Flags: W
HStem: -256 120<512 896> 1542 120<512 896>
VStem: 384 128<-136 1542>
LayerCount: 5
Back
Fore
SplineSet
384 -256 m 5
 384 383.333333333 384 1022.66666667 384 1662 c 5
 554.666666667 1662 725.333333333 1662 896 1662 c 5
 896 1542 l 5
 512 1542 l 5
 512 -136 l 5
 896 -136 l 5
 896 -256 l 5
 384 -256 l 5
EndSplineSet
Layer: 2
Layer: 3
Layer: 4
EndChar
StartChar: c
Encoding: 99 99 3
Width: 1152
VWidth: 0
Flags: W
HStem: -16 120<450.346 890.029> 920 120<450.346 890.029>
VStem: 224 128<209.807 814.193>
AnchorPoint: "bottom" 704 0 basechar 0
LayerCount: 5
Back
Fore
SplineSet
224 512 m 0
 224 633.270507812 226 738 264 831 c 0
 311 946 417.376953125 1040 586 1040 c 0
 668.55859375 1040 768.595703125 1025.40136719 896 999 c 1
 896 876 l 1
 767.84765625 903.083007812 662.2421875 920 586 920 c 0
 485 920 420 872 384 789 c 0
 352 716 352 613.502929688 352 512 c 1
 352 410.497070312 352 308 384 235 c 0
 420 152 485 104 586 104 c 0
 662.242003659 104 767.847328244 120.917335194 896 148 c 1
 896 25 l 1
 768.595469256 -1.40139726897 668.558443552 -16 586 -16 c 0
 417.376692715 -16 311 78 264 193 c 0
 226 286 224 390.729429232 224 512 c 0
EndSplineSet
Layer: 2
Layer: 3
Layer: 4
EndChar
StartChar: e
Encoding: 101 101 5
Width: 1152
VWidth: 0
Flags: W
HStem: -16 120<450.346 890.029> 512 120<354.639 797.458> 920 120<445.97 705.959>
VStem: 224 128<210.576 512 632 813.956>
LayerCount: 4
Back
SplineSet
576.057617188 1040 m 0
 586.447265625 1039.99121094 596.829101562 1039.59082031 607.177734375 1038.80371094 c 0
 670.810546875 1033.96386719 733.1328125 1014.22558594 787.529296875 980.650390625 c 0
 841.93359375 947.069335938 887.229492188 900.379882812 918.537109375 845.388671875 c 0
 950.159179688 789.841796875 967.034179688 727.065429688 967.034179688 662.755859375 c 0
 967.034179688 609.04296875 955.186523438 555.874023438 932.329101562 506.940429688 c 1
 1052.37695312 126 l 1
 1007.828125 51.111328125 l 1
 954.526367188 37.4921875 900.805664062 25.5205078125 846.768554688 15.2060546875 c 0
 795.350585938 5.3916015625 743.08203125 -3.36328125 689.87109375 -9.544921875 c 0
 658.643554688 -13.1728515625 626.009765625 -16.03515625 592.068359375 -16.03515625 c 0
 589.778320312 -16.03515625 587.487304688 -16.0224609375 585.196289062 -15.9951171875 c 0
 575.67578125 -15.8828125 566 -15.5224609375 556.198242188 -14.8310546875 c 0
 495.318359375 -10.5361328125 432.840820312 7.73828125 379.806640625 45.12109375 c 0
 327.09375 82.2744140625 289.305664062 133.736328125 265.666992188 189.028320312 c 0
 242.19140625 243.943359375 232.552734375 300.779296875 228.045898438 354.883789062 c 0
 224.58203125 396.477539062 223.856445312 437.3671875 223.856445312 477.392578125 c 0
 223.856445312 489.1328125 223.919921875 500.802734375 224.000976562 512.395507812 c 0
 224.69140625 611.124023438 222.135742188 721.86328125 264.73828125 828.512695312 c 0
 286.423828125 882.799804688 321.114257812 934.479492188 371.077148438 973.23046875 c 0
 421.365234375 1012.23535156 482.692382812 1033.86816406 544.596679688 1038.78613281 c 0
 555.168945312 1039.625 565.661132812 1040.00878906 576.057617188 1040 c 0
575.942382812 920 m 0
 568.987304688 920.005859375 562.127929688 919.748046875 555.403320312 919.213867188 c 0
 517.797851562 916.2265625 481.2578125 902.943359375 452.668945312 880.76953125 c 0
 423.752929688 858.342773438 399.953125 824.841796875 384.607421875 786.427734375 c 0
 353.149414062 707.677734375 352.703125 612.516601562 351.999023438 511.60546875 c 0
 351.91796875 500.1328125 351.856445312 488.7265625 351.856445312 477.392578125 c 0
 351.856445312 438.76171875 352.595703125 400.990234375 355.657226562 364.2265625 c 0
 359.591796875 316.985351562 367.98046875 272.267578125 384.479492188 233.671875 c 0
 400.817382812 195.456054688 426.318359375 162.469726562 456.728515625 141.03515625 c 0
 486.815429688 119.828125 525.23828125 107.692382812 565.801757812 104.831054688 c 0
 572.640625 104.348632812 579.642578125 104.080078125 586.803710938 103.995117188 c 0
 588.557617188 103.974609375 590.313476562 103.96484375 592.068359375 103.96484375 c 0
 618.234375 103.96484375 645.635742188 106.234375 674.12890625 109.543945312 c 0
 722.841796875 115.204101562 771.860351562 123.370117188 821.231445312 132.793945312 c 0
 850.930664062 138.462890625 882.840820312 145.176757812 910.849609375 151.572265625 c 1
 802.623046875 495 l 1
 807.234375 539.7109375 l 1
 827.802734375 576.743164062 839.034179688 619.927734375 839.034179688 662.755859375 c 0
 839.034179688 707.350585938 827.266601562 750.8515625 805.61328125 788.885742188 c 0
 784.325195312 826.280273438 753.201171875 858.165039062 717.140625 880.422851562 c 0
 681.07421875 902.685546875 639.193359375 915.973632812 596.822265625 919.196289062 c 0
 589.870117188 919.725585938 582.90234375 919.994140625 575.942382812 920 c 0
EndSplineSet
Fore
SplineSet
352 512 m 5
 352 410.497070312 352 308 384 235 c 4
 420 152 485 104 586 104 c 4
 662.242003659 104 767.847328244 120.917335194 896 148 c 5
 896 25 l 5
 768.595469256 -1.40139726897 668.558443552 -16 586 -16 c 4
 417.376692715 -16 311 78 264 193 c 4
 226 286 224 390.729429232 224 512 c 4
 224 632.510742188 225.643688474 734.441550902 263.647460938 829.205078125 c 4
 309.981445312 944.740234375 415.514648438 1040 576 1040 c 4
 736.485409819 1040 842.021531583 944.741868763 888.352539062 829.205078125 c 4
 926.353934177 734.440049905 928 632.510430051 928 512 c 5
 352 512 l 5
797.457818426 632 m 5
 794.057825117 690.014067154 786.174104472 744.132679584 768 789 c 4
 736 868 672 920 576 920 c 4
 480 920 415.655472916 868.138682289 384 789 c 4
 366.025496869 744.063742172 358.102457469 689.974524432 354.638713083 632 c 5
 797.457818426 632 l 5
EndSplineSet
Layer: 2
SplineSet
576 980 m 4
 567.324612998 980.007379198 558.648152101 979.686920168 550 979 c 4
 500.245423951 975.048008716 451.311733641 957.589653639 411.872890688 927.000215274 c 4
 372.434047735 896.410776909 343.188425924 853.820833359 324.673266956 807.470806807 c 4
 287.642949022 714.770753703 288.697604393 611.820126426 288 512 c 4
 287.91940119 500.467126224 287.856395582 488.93015463 287.856395582 477.392976915 c 4
 287.856395582 438.064565054 288.588533436 398.733758033 291.851659333 359.554711574 c 4
 296.072038818 308.882304454 305.0858767 258.105397834 325.073503873 211.350727412 c 4
 345.061131045 164.596056991 376.706318257 122.372381569 418.267368028 93.0776109084 c 4
 459.828417799 63.7828402475 510.278200692 48.5782008155 561 45 c 4
 569.320516814 44.413023977 577.65937952 44.0979331985 586 44 c 4
 588.022876744 43.9762479554 590.045623534 43.9646254314 592.068203574 43.9646254314 c 4
 622.122529267 43.9646254314 652.140036348 46.5308992478 682 50 c 4
 732.962111227 55.9207271802 783.604982912 64.3805382794 834 74 c 4
 886.675415345 84.0547468938 939.04273757 95.7244511352 991 109 c 5
 864 512 l 5
 889.476206294 557.86960532 903.034376913 610.28748356 903.034376913 662.755670374 c 4
 903.034376913 717.207323587 888.713226589 770.346948745 862.075606256 817.137046122 c 4
 835.777673956 863.33046722 797.567381177 902.617464504 752.335260943 930.536431088 c 4
 707.103140709 958.455397671 655.00156457 974.969175132 602 979 c 4
 593.349874121 979.657851193 584.675101813 979.992621044 576 980 c 4
  Spiro
    576 980 o
    550 979 o
    288 512 o
    561 45 o
    586 44 o
    682 50 o
    834 74 o
    991 109 v
    864 512 v
    602 979 o
    0 0 z
  EndSpiro
EndSplineSet
Layer: 3
EndChar
StartChar: f
Encoding: 102 102 6
Width: 1152
VWidth: 0
Flags: W
HStem: 0 21G<384 512> 904 120<128 384 512 896> 1432 120<540.512 861.299>
VStem: 384 128<0 904 1024 1385.26>
LayerCount: 4
Back
SplineSet
640 0 m 5
 512 0 l 5
 512 1257 l 6
 512 1286.23339844 512 1319.13103678 519.037109375 1354.39648438 c 4
 526.08984375 1389.74023438 540.064534892 1425.3248938 563.885742188 1456.89941406 c 4
 587.717773438 1488.48828125 619.67973483 1513.53211883 656.364257812 1529.64941406 c 4
 692.946289062 1545.72167969 731.352540828 1551.81605549 767.658203125 1551.99902344 c 4
 792.655273438 1552.125 816.245230816 1549.59156335 838.3046875 1546.21777344 c 4
 892.56640625 1537.91894531 944.02532438 1524.82592192 993.411132812 1511.73730469 c 4
 1003.62430444 1509.03052923 1013.82098761 1506.25529083 1024 1503.41101038 c 5
 1024 1377.85302934 l 5
 1002.30039792 1384.32300509 980.492186486 1390.45774745 958.588867188 1396.26269531 c 4
 910.21875 1409.08203125 863.402545929 1420.79429086 817.6953125 1427.78320312 c 4
 800.036132812 1430.48339844 783.524412296 1432.07749976 768.341796875 1432.00097656 c 4
 746.834960938 1431.89257812 727.02823035 1428.17110322 710.680664062 1420.98925781 c 4
 694.43359375 1413.8515625 679.375932538 1402.16800196 668.389648438 1387.60546875 c 4
 657.391601562 1373.02734375 649.11469732 1353.6817478 644.853515625 1332.328125 c 4
 640.580078125 1310.91308594 640 1285.58007812 640 1257 c 6
 640 0 l 5
EndSplineSet
Fore
SplineSet
512 0 m 1
 384 0 l 1
 384 904 l 1
 128 904 l 1
 128 1024 l 1
 384 1024 l 1
 384 1257 l 2
 384 1309 384.272499666 1386.7983924 436 1457 c 0
 478 1514 549.994444616 1552 640 1552 c 0
 707 1552 818 1525 896 1503 c 1
 896 1378 l 1
 818 1401 705 1432 640 1432 c 0
 593 1432 561.120493456 1414.9092235 540 1387 c 0
 512 1350 512 1301 512 1257 c 2
 512 1024 l 1
 896 1024 l 5
 896 904 l 5
 512 904 l 1
 512 0 l 1
EndSplineSet
Layer: 2
SplineSet
576 1024 m 1
 576 1257 l 2
 576 1285.90673474 576.287679267 1315.01505815 581.945221544 1343.36274816 c 0
 587.602763822 1371.71043817 598.728519398 1399.17598401 616.137789655 1422.2523057 c 0
 633.547059913 1445.32862739 657.057107751 1463.69179233 683.522334142 1475.31896334 c 0
 709.987560532 1486.94613434 739.093632146 1491.85435987 768 1492 c 0
 788.089750259 1492.10121901 808.140866137 1490.03695785 828 1487 c 0
 877.984517403 1479.35611817 927.121817117 1466.95392402 976 1454 c 0
 1025.14199449 1440.97615939 1073.85556538 1426.3300172 1122 1410 c 1024
  Spiro
    576 1024 {
    576 1257 ]
    768 1492 o
    828 1487 o
    976 1454 o
    1122 1410 o
    0 0 z
  EndSpiro
EndSplineSet
Layer: 3
EndChar
StartChar: h
Encoding: 104 104 8
Width: 1152
VWidth: 0
Flags: W
HStem: 0 21G<256 384 768 896> 920 120<471.273 704.311> 1516 20G<256 384>
VStem: 256 128<0 857.984 912 1536> 768 128<0 854.076>
LayerCount: 4
Back
Fore
SplineSet
596 1040 m 0
 696 1040 777 995 827 933 c 0
 896 847 896 751 896 657 c 2
 896 0 l 1
 768 0 l 1
 768 657 l 2
 768 744 768 806 723 858 c 0
 691 895 640 920 576 920 c 0
 512 920 461 895 429 858 c 0
 384 806 384 744 384 657 c 2
 384 0 l 1
 256 0 l 1
 256 1536 l 5
 384 1536 l 5
 384 912 l 1
 394 912 l 1
 443 989 520 1040 596 1040 c 0
EndSplineSet
Layer: 2
Layer: 3
EndChar
StartChar: i
Encoding: 105 105 9
Width: 1152
VWidth: 0
Flags: W
HStem: 0 120<256 512 640 896> 904 120<256 512> 1328 224<453.032 634.968>
VStem: 432 224<1349.03 1530.97> 512 128<120 904>
LayerCount: 4
Back
Fore
SplineSet
544 1552 m 4xf0
 610 1552 656 1506 656 1440 c 4
 656 1374 610 1328 544 1328 c 4
 478 1328 432 1374 432 1440 c 4
 432 1506 478 1552 544 1552 c 4xf0
256 0 m 1
 256 120 l 1
 512 120 l 1
 512 904 l 1
 256 904 l 1
 256 1024 l 1
 640 1024 l 1
 640 120 l 1xe8
 896 120 l 1
 896 0 l 1
 256 0 l 1
EndSplineSet
Layer: 2
Layer: 3
EndChar
StartChar: j
Encoding: 106 106 10
Width: 1152
VWidth: 0
Flags: W
HStem: -528 120<258.716 579.345> 898 126<384 640> 1328 224<581.032 762.968>
VStem: 560 224<1349.03 1530.97> 640 128<-347.784 898>
LayerCount: 4
Back
Fore
SplineSet
256 -364.945645653 m 1xe8
 311.177380797 -387.188711056 380.022258918 -408 448 -408 c 0
 515 -408 565.341363374 -384.284862896 597 -346 c 0
 640 -294 640 -230 640 -142 c 2
 640 898 l 1
 384 898 l 1
 384 1024 l 1
 768 1024 l 1
 768 -152 l 2
 768 -243 767.811358478 -337.843931074 700 -420 c 0
 648 -483 564 -528 458 -528 c 0
 383.447909072 -528 316.374883856 -513.041868577 256 -493.2776223 c 1
 256 -364.945645653 l 1xe8
672 1552 m 0
 738 1552 784 1506 784 1440 c 0
 784 1374 738 1328 672 1328 c 0
 606 1328 560 1374 560 1440 c 0xf0
 560 1506 606 1552 672 1552 c 0
EndSplineSet
Layer: 2
SplineSet
448 44 m 4
 598.8 44 704 -60.95 704 -212 c 4
 704 -363.05 598.8 -468 448 -468 c 4
 297.2 -468 192 -363.05 192 -212 c 4
 192 -60.95 297.2 44 448 44 c 4
EndSplineSet
Layer: 3
SplineSet
704 45 m 1
 704 -172 l 2
 704 -209.30175595 703.454831685 -246.92394934 695.223254122 -283.306117057 c 0
 686.99167656 -319.688284774 671.043396481 -354.533371494 647.203993415 -383.22315815 c 0
 623.364590348 -411.912944806 592.00622287 -434.113648541 557.420372628 -448.086477886 c 0
 522.739235077 -462.097803707 485.192168037 -467.986486026 447.729768683 -468.00009819 c 0
 405.278768715 -468.00009819 363.072771044 -460.733301726 322 -450 c 0
 286.585548448 -440.745353082 251.873601214 -428.871229546 218 -415 c 0
 185.834505443 -401.828239618 154.435909116 -386.785998568 124 -370 c 1
 704 45 l 1
  Spiro
    704 45 v
    704 -172 ]
    448 -468 o
    322 -450 o
    218 -415 o
    124 -370 v
    0 0 z
  EndSpiro
EndSplineSet
EndChar
StartChar: k
Encoding: 107 107 11
Width: 1152
VWidth: 0
Flags: W
HStem: 0 21G<256 384 833.964 1002> 1004 20G<764.815 955> 1516 20G<256 384>
VStem: 256 128<0 435 607 1536>
LayerCount: 5
Back
SplineSet
384 0 m 5
 256 0 l 5
 256 1536 l 5
 384 1536 l 5
 384 495.726689051 l 5
 912.272646996 1024 l 5
 1087.72664541 1024 l 5
 596.727400787 533.000138275 l 5
 1129.72753906 0 l 5
 954.2734375 -2.84217094304e-14 l 5
 509.000405135 445.273032365 l 5
 384 320.272470124 l 5
 384 0 l 5
EndSplineSet
Fore
SplineSet
384 0 m 1
 256 0 l 1
 256 1536 l 1
 384 1536 l 1
 384 607 l 1
 784 1024 l 1
 955 1024 l 1
 592 645 l 1
 1002 0 l 1
 846 0 l 1
 509 560 l 1
 384 435 l 1
 384 0 l 1
EndSplineSet
Layer: 2
SplineSet
515 527 m 29
 1460 -418 l 1053
330 354 m 29
 1107 1131 l 1053
EndSplineSet
Layer: 3
Layer: 4
EndChar
StartChar: n
Encoding: 110 110 14
Width: 1152
VWidth: 0
Flags: W
HStem: 0 21G<256 384 768 896> 920 120<471.273 704.311> 1004 20G<256 384>
VStem: 256 128<0 857.984 912 1024> 768 128<0 854.076>
AnchorPoint: "top" 576 1024 basechar 0
LayerCount: 5
Back
SplineSet
384 0 m 4
 384 0.9375 256 -0.9375 256 0 c 1028
896 0 m 5
 768 0 l 5
 768 687 l 4
 768 723.314453125 766.94921875 756.012695312 760.21875 783.845703125 c 4
 753.473632812 811.74609375 740.611328125 837.561523438 723.45703125 857.560546875 c 4
 706.166015625 877.717773438 683.328125 893.7890625 658.21484375 904.193359375 c 4
 632.833984375 914.70703125 604.59765625 920 576 920 c 4
 547.405273438 920 519.163085938 914.705078125 493.787109375 904.194335938 c 4
 468.673828125 893.790039062 445.833007812 877.716796875 428.54296875 857.560546875 c 4
 416.044921875 842.990234375 405.79296875 825.358398438 398.5625 806.001953125 c 4
 395.874023438 798.807617188 393.60546875 791.393554688 391.780273438 783.84375 c 4
 385.05078125 756.009765625 384 723.322265625 384 687 c 4
 384 0 l 4
 384 -0.9375 256 0.9375 256 0 c 4
 256 1024 l 5
 384 1024 l 5
 384 982.354492188 l 5
 402.209960938 994.875976562 421.98046875 1005.640625 442.05078125 1013.95507812 c 4
 484.915039062 1031.7109375 530.733398438 1040 576 1040 c 4
 621.263671875 1040 667.087890625 1031.70996094 709.947265625 1013.95605469 c 4
 753.072265625 996.08984375 792.40625 968.666992188 823.205078125 932.760742188 c 4
 854.138671875 896.698242188 874.440429688 854.264648438 885.052734375 810.37109375 c 4
 895.681640625 766.412109375 896 724.548828125 896 687 c 4
 896 0 l 5
EndSplineSet
Fore
SplineSet
596 1040 m 0xd8
 696 1040 777 995 827 933 c 0
 896 847 896 751 896 657 c 2
 896 0 l 1
 768 0 l 1
 768 657 l 2
 768 744 768 806 723 858 c 0
 691 895 640 920 576 920 c 0xd8
 512 920 461 895 429 858 c 0
 384 806 384 744 384 657 c 2
 384 0 l 1
 256 0 l 1
 256 1024 l 1
 384 1024 l 1xb8
 384 912 l 1
 394 912 l 1
 443 989 520 1040 596 1040 c 0xd8
EndSplineSet
Layer: 2
SplineSet
576 980 m 0
 726.799715909 980 832 875.049715909 832 724 c 0
 832 572.950284091 726.799715909 468 576 468 c 0
 425.200284091 468 320 572.950284091 320 724 c 0
 320 875.049715909 425.200284091 980 576 980 c 0
EndSplineSet
Layer: 3
SplineSet
832 0 m 1
 832 687 l 2
 832 723.931084581 831.315327639 761.212048046 822.636028962 797.108771891 c 0
 813.956730285 833.005495737 797.375202654 867.129546756 773.330569776 895.160969091 c 0
 749.285936896 923.192391424 718.199859157 944.939953425 684.080580569 959.074302967 c 0
 649.961301981 973.208652508 612.931084581 980.000000001 576 980 c 0
 539.068915419 980 502.038698018 973.208652506 467.91941943 959.074302963 c 0
 433.800140842 944.93995342 402.714063103 923.192391417 378.669430225 895.160969083 c 0
 354.624797347 867.12954675 338.043269716 833.005495731 329.363971039 797.108771887 c 0
 320.684672362 761.212048043 320 723.93108458 320 687 c 2
 320 0 l 1
 320 1024 l 1025
  Spiro
    832 0 {
    832 687 ]
    576 980 o
    320 687 [
    320 0 v
    320 1024 v
    0 0 z
  EndSpiro
EndSplineSet
Layer: 4
EndChar
StartChar: o
Encoding: 111 111 15
Width: 1152
VWidth: 0
Flags: W
HStem: -16 120<446.155 705.845> 920 120<446.155 705.845>
VStem: 224 128<209.24 814.76> 800 128<209.24 814.76>
LayerCount: 5
Back
Fore
SplineSet
576 920 m 4
 480 920 416 868 384 789 c 4
 354 714 352 614 352 512 c 4
 352 410 354 310 384 235 c 4
 416 156 480 104 576 104 c 4
 672 104 736 156 768 235 c 4
 798 310 800 410 800 512 c 4
 800 614 798 714 768 789 c 4
 736 868 672 920 576 920 c 4
576 1040 m 4
 736 1040 842 945 888 829 c 4
 926 734 928 633 928 512 c 4
 928 391 926 290 888 195 c 4
 842 79 736 -16 576 -16 c 4
 416 -16 310 79 264 195 c 4
 226 290 224 391 224 512 c 4
 224 633 226 734 264 829 c 4
 310 945 416 1040 576 1040 c 4
EndSplineSet
Layer: 2
SplineSet
576 620 m 4
 745.649680398 620 864 501.930930398 864 332 c 4
 864 162.069069602 745.649680398 44 576 44 c 4
 406.350319602 44 288 162.069069602 288 332 c 4
 288 501.930930398 406.350319602 620 576 620 c 4
  Spiro
    576 620 o
    725.939 583.167 o
    827.105 482.063 o
    864 332 o
    827.105 181.937 o
    725.939 80.8329 o
    576 44 o
    426.061 80.8329 o
    324.895 181.937 o
    288 332 o
    324.895 482.063 o
    426.061 583.167 o
    0 0 z
  EndSpiro
576 980 m 4
 745.649680398 980 864 861.930930398 864 692 c 4
 864 522.069069602 745.649680398 404 576 404 c 4
 406.350319602 404 288 522.069069602 288 692 c 4
 288 861.930930398 406.350319602 980 576 980 c 4
  Spiro
    576 980 o
    725.939 943.167 o
    827.105 842.063 o
    864 692 o
    827.105 541.937 o
    725.939 440.833 o
    576 404 o
    426.061 440.833 o
    324.895 541.937 o
    288 692 o
    324.895 842.063 o
    426.061 943.167 o
    0 0 z
  EndSpiro
EndSplineSet
Layer: 3
SplineSet
576 980 m 0
 567.324724123 980 558.648756819 979.677803086 550 979 c 0
 500.14705605 975.093024703 451.039999149 957.918629526 411.358993265 927.488410196 c 0
 371.677987381 897.058190866 342.166566355 854.502829358 323.553962577 808.089992158 c 0
 304.941358799 761.677154957 296.557710164 711.747219037 292.442706941 661.91101508 c 0
 288.327703719 612.074811123 288 562.005804427 288 512 c 1
 288 461.994195573 288.327703721 411.925188876 292.442706944 362.088984919 c 0
 296.557710167 312.252780961 304.941358804 262.322845041 323.553962582 215.91000784 c 0
 342.16656636 169.497170641 371.677987385 126.941809133 411.358993268 96.5115898039 c 0
 451.039999151 66.0813704744 500.147056051 48.9069752969 550 45 c 0
 558.648756819 44.3221969143 567.324724123 44 576 44 c 0
 584.675275877 44 593.351243181 44.3221969143 602 45 c 0
 651.85294395 48.9069752967 700.960000851 66.0813704743 740.641006735 96.5115898041 c 0
 780.322012619 126.941809134 809.833433645 169.497170642 828.446037423 215.910007842 c 0
 847.058641201 262.322845043 855.442289836 312.252780963 859.557293059 362.08898492 c 0
 863.672296281 411.925188877 864 461.994195573 864 512 c 1
 864 562.005804427 863.672296279 612.074811124 859.557293056 661.911015081 c 0
 855.442289833 711.747219039 847.058641196 761.677154959 828.446037418 808.08999216 c 0
 809.83343364 854.502829359 780.322012615 897.058190867 740.641006732 927.488410196 c 0
 700.960000849 957.918629526 651.852943949 975.093024703 602 979 c 0
 593.351243181 979.677803086 584.675275877 980 576 980 c 0
  Spiro
    576 980 o
    550 979 o
    288 512 o
    550 45 o
    576 44 o
    602 45 o
    864 512 o
    602 979 o
    0 0 z
  EndSpiro
EndSplineSet
Layer: 4
EndChar
StartChar: s
Encoding: 115 115 19
Width: 1152
VWidth: 0
Flags: W
HStem: -16 120<260.566 720.345> 920 120<413.623 843.839>
VStem: 234 128<687.599 867.607> 800 128<183.035 441.813>
LayerCount: 4
Back
Fore
SplineSet
567 -16 m 0
 474 -16 355 7 256 26 c 1
 256 149 l 1
 351 129 480 104 567 104 c 0
 755 104 800 231 800 313 c 0
 800 397 757 458 700 488 c 0
 614 532 507 510 402 550 c 0
 318 582 234 661 234 776 c 0
 234 904 343 1040 572 1040 c 0
 679 1040 789 1012 886 989 c 1
 886 866 l 1
 788 889 665 920 572 920 c 0
 410 920 362 834 362 776 c 0
 362 719 404 679 450 662 c 0
 543 627 654 651 762 594 c 0
 855 545 928 445 928 313 c 0
 928 147 810 -16 567 -16 c 0
EndSplineSet
Layer: 2
SplineSet
576 980 m 0
 739.759066495 980 854 897.597628507 854 779 c 0
 854 660.402371493 739.759066495 578 576 578 c 4
 412.240933505 578 298 660.402371493 298 779 c 0
 298 897.597628507 412.240933505 980 576 980 c 0
576 578 m 4
 745.649680398 578 864 468.54013339 864 311 c 0
 864 153.45986661 745.649680398 44 576 44 c 0
 406.350319602 44 288 153.45986661 288 311 c 0
 288 468.54013339 406.350319602 578 576 578 c 4
EndSplineSet
Layer: 3
SplineSet
140 113 m 4
 185.762691318 101.947687501 231.78739135 91.9873427671 278 83 c 4
 327.493012513 73.3746903491 377.153572464 64.5854159654 427 57 c 4
 473.275595525 49.9579779644 519.902994027 43.9187396477 566.684503277 43.9187396477 c 4
 569.789009423 43.9187396477 572.894194256 43.9453357968 576 44 c 4
 614.901010439 44.684683111 653.952155312 50.0764336248 690.658601803 62.9758208232 c 4
 727.365048295 75.8752080215 761.510102351 96.4670573424 789 124 c 4
 838.016068617 173.092820343 864.004774862 242.680943577 864.004774862 312.660323432 c 4
 864.004774862 358.769164278 852.956597373 405.08222165 830.368083987 445.273246023 c 4
 807.508426076 485.946709236 772.430457955 519.542793211 731 541 c 4
 684.595689907 565.033209544 631.826916886 573.393941586 579.825905344 578.57563579 c 4
 527.824893802 583.757329994 474.791179124 587.28166685 426 606 c 4
 390.25200955 619.714421473 357.260601722 641.843930531 333.88754017 672.170555323 c 4
 311.0322082 701.825424267 297.979869429 739.027078107 297.979869429 776.456152707 c 4
 297.979869429 808.17764749 306.815536927 838.202335486 322.462069449 864.896442057 c 4
 337.684277939 890.8666214 359.194161545 912.946078899 384 930 c 4
 438.196867271 967.260143415 505.916806735 980.017443723 571.771003965 980.017443723 c 4
 573.181575723 980.017443723 574.591291478 980.011590673 576 980 c 4
 618.601902266 979.649477026 661.040229894 974.377169896 703 967 c 4
 744.277949276 959.742704643 785.170704155 950.460762818 826 941 c 4
 867.353023672 931.417881556 908.660806454 921.641609702 950 912 c 1028
  Spiro
    140 113 {
    278 83 o
    427 57 o
    576 44 o
    789 124 o
    864 311 o
    731 541 o
    426 606 o
    298 779 o
    384 930 o
    576 980 o
    703 967 o
    826 941 o
    950 912 o
    0 0 z
  EndSpiro
EndSplineSet
EndChar
StartChar: t
Encoding: 116 116 20
Width: 1152
VWidth: 0
Flags: W
HStem: -16 120<572.655 893.284> 898 126<128 384 512 896>
VStem: 384 128<164.223 898 1024 1280>
LayerCount: 5
Back
Fore
SplineSet
896 18.7223777 m 5
 835.625116144 -1.04186857672 768.552090928 -16 694 -16 c 4
 588 -16 504 28.9999999998 452 92 c 4
 384.188641522 174.156068926 384 270.529812179 384 360 c 6
 384 898 l 5
 128 898 l 5
 128 1024 l 5
 384 1024 l 5
 384 1280 l 5
 512 1280 l 5
 512 1024 l 5
 896 1024 l 5
 896 898 l 5
 512 898 l 5
 512 370 l 6
 512 284.292815556 512 218 555 166 c 4
 586.658636626 127.715137104 637 104 704 104 c 4
 771.977741082 104 840.822619203 124.811288944 896 147.054354347 c 5
 896 18.7223777 l 5
EndSplineSet
Layer: 2
Layer: 3
Layer: 4
EndChar
StartChar: w
Encoding: 119 119 22
Width: 1152
VWidth: 0
Flags: W
HStem: 0 21G<257 386.593 765.407 895> 1003 21G<106 237 509.474 642.526 915 1046>
VStem: 106 131<559.059 1024> 915 131<559.059 1024>
LayerCount: 5
Back
SplineSet
1138 1124 m 5
 896 14 l 5
 640 1009 l 5
 384 14 l 5
 142 1124 l 1029
EndSplineSet
Fore
SplineSet
514 1023 m 5
 638 1023 l 5
 822 210 l 5
 832 210 l 5
 907 461 915 741 915 1024 c 5
 1046 1024 l 5
 1046 681 995 340 895 2 c 5
 770 0 l 5
 581 823 l 5
 571 823 l 5
 382 0 l 5
 257 2 l 5
 157 340 106 681 106 1024 c 5
 237 1024 l 5
 237 741 245 461 320 210 c 5
 330 210 l 5
 514 1023 l 5
EndSplineSet
Layer: 2
SplineSet
1182 1024 m 5
 959 2 l 5
 834 -0 l 5
 640 753 l 5
 446 -0 l 5
 321 2 l 5
 98 1024 l 5
 229 1024 l 5
 389 290 l 5
 578 1023 l 5
 702 1023 l 5
 891 290 l 5
 1051 1024 l 5
 1182 1024 l 5
EndSplineSet
Layer: 3
Layer: 4
EndChar
StartChar: z
Encoding: 122 122 25
Width: 1152
VWidth: 0
Flags: W
HStem: 0 120<401 896> 904 120<276 730.92>
VStem: 256 640<0 92>
LayerCount: 4
Back
Fore
SplineSet
276 904 m 5
 276 1024 l 5
 876 1024 l 5
 876 934 l 5
 401.080078125 130 l 5
 401 120 l 5
 896 120 l 5
 896 0 l 5
 256 0 l 5
 256 92 l 5
 731 894 l 5
 730.919921875 904 l 5
 276 904 l 5
EndSplineSet
Layer: 2
Layer: 3
EndChar
StartChar: bar
Encoding: 124 124 92
Width: 1152
VWidth: 0
Flags: W
VStem: 512 128<-248 1660>
LayerCount: 4
Back
Fore
SplineSet
640 1660 m 1
 640 -248 l 5
 512 -248 l 5
 512 1660 l 1
 640 1660 l 1
EndSplineSet
Layer: 2
Layer: 3
EndChar
StartChar: uni009B
Encoding: 155 155 95
Width: 1152
VWidth: 0
Flags: W
HStem: 1516 20G<128 1346>
VStem: 128 1218<-512 1536>
LayerCount: 5
Back
Fore
SplineSet
128 1536 m 5
 1346 1536 l 5
 1346 -512 l 5
 128 -512 l 5
 128 1536 l 5
EndSplineSet
Layer: 2
Layer: 3
Layer: 4
EndChar
StartChar: uni009C
Encoding: 156 156 96
Width: 1152
VWidth: 0
Flags: W
VStem: 128 1218<-256 1664>
LayerCount: 4
Back
Fore
SplineSet
128 1664 m 5
 1346 1664 l 5
 1346 -256 l 5
 128 -256 l 5
 128 1664 l 5
EndSplineSet
Layer: 2
Layer: 3
EndChar
StartChar: uni009D
Encoding: 157 157 97
Width: 2048
VWidth: 0
HStem: 0 21G<-574 1102> 1516 20G<-574 1102>
VStem: -574 1676<0 1536>
LayerCount: 5
Back
Fore
SplineSet
1102 1536 m 5
 1102 0 l 5
 -574 0 l 5
 -574 1536 l 5
 1102 1536 l 5
EndSplineSet
Layer: 2
Layer: 3
Layer: 4
EndChar
StartChar: degree
Encoding: 176 176 318
Width: 1152
VWidth: 0
Flags: W
HStem: 1008 100<491.338 660.662> 1324 100<491.338 660.662>
VStem: 368 108<1121.57 1310.43> 676 108<1121.57 1310.43>
LayerCount: 5
Back
Fore
SplineSet
576 1324 m 4
 518 1324 476 1290 476 1216 c 4
 476 1142 518 1108 576 1108 c 4
 634 1108 676 1142 676 1216 c 4
 676 1290 634 1324 576 1324 c 4
576 1424 m 4
 699 1424 784 1330 784 1216 c 4
 784 1102 699 1008 576 1008 c 4
 453 1008 368 1102 368 1216 c 4
 368 1330 453 1424 576 1424 c 4
EndSplineSet
Layer: 2
Layer: 3
Layer: 4
EndChar
StartChar: Aacute
Encoding: 193 193 104
Width: 1152
VWidth: 0
Flags: W
HStem: 0 21G<103 243 909 1049> 388 120<304 848> 1161 119<547.875 604.125>
LayerCount: 5
Back
Fore
SplineSet
103 0 m 1
 147 451 239 882 516 1280 c 1
 636 1280 l 1
 913 882 1005 451 1049 0 c 1
 914 0 l 1
 904 136 891 265 874 388 c 1
 278 388 l 1
 261 265 248 136 238 0 c 1
 103 0 l 1
848 508 m 1
 790 752 707 970 581 1161 c 1
 571 1161 l 1
 445 970 362 752 304 508 c 1
 848 508 l 1
488 1408 m 1
 626 1408 l 1
 792 1664 l 1
 654 1664 l 1
 488 1408 l 1
EndSplineSet
Layer: 2
Layer: 3
Layer: 4
EndChar
StartChar: ae
Encoding: 230 230 174
Width: 1152
VWidth: 0
Flags: W
HStem: -16 120<267.742 443.041 713.759 1021.08> 512 120<268.732 512 641 927> 924 120<131.557 482.669 709.875 868.153>
VStem: 96 128<147.047 465.682> 512 128<188.512 512 632 843.07> 927 127<632 859.393>
LayerCount: 5
Back
SplineSet
1085.19628906 494.436523438 m 1
 962.803710938 529.564453125 l 1
 988.555664062 608.421875 989.182617188 696.142578125 961.9765625 772.266601562 c 0
 948.405273438 810.240234375 927.943359375 844.6484375 902.041992188 870.889648438 c 0
 876.103515625 897.16796875 844.734375 914.354492188 815.729492188 918.77734375 c 0
 810.388671875 919.591796875 805.119140625 919.997070312 799.95703125 920 c 0
 794.803710938 920.002929688 789.603515625 919.603515625 784.43359375 918.802734375 c 0
 757.64453125 914.653320312 728.615234375 897.998046875 706.56640625 872.40625 c 0
 684.36328125 846.635742188 668.106445312 811.7265625 658.134765625 773.110351562 c 0
 637.791992188 694.333984375 640.063476562 605.671875 640 511.961914062 c 4
 639.962890625 457.2109375 639.708984375 403.895507812 643.26171875 352.251953125 c 4
 646.80078125 300.80859375 654.727539062 252.418945312 672.354492188 211.440429688 c 4
 684.66015625 182.836914062 702.10546875 157.958984375 722.649414062 140.46875 c 4
 742.8828125 123.2421875 768.365234375 111.615234375 794.787109375 106.973632812 c 4
 806.377929688 104.9375 818.826171875 103.986328125 831.9296875 104 c 4
 851.833007812 104.020507812 873.51953125 106.243164062 896.903320312 109.390625 c 4
 946.49609375 116.06640625 996.233398438 124.163085938 1046.17285156 132.966796875 c 5
 1069.82714844 15.033203125 l 5
 1018.73144531 6.0263671875 967.1796875 -2.3798828125 915.096679688 -9.3916015625 c 4
 889.390625 -12.8505859375 861.698242188 -15.96875 832.0703125 -16 c 4
 812.35546875 -16.0205078125 791.944335938 -14.615234375 771.212890625 -10.9736328125 c 4
 721.875 -2.3056640625 674.931640625 18.99609375 636.596679688 51.6328125 c 4
 598.5703125 84.0078125 571.736328125 124.501953125 553.645507812 166.55859375 c 4
 528.153320312 225.818359375 519.4765625 287.112304688 515.52734375 344.529296875 c 4
 511.591796875 401.745117188 511.962890625 457.671875 512 512.0390625 c 4
 512.061523438 602.774414062 507.954101562 701.534179688 533.728515625 801.345703125 c 0
 546.815429688 852.022460938 568.998046875 903.7109375 606.9921875 947.80859375 c 0
 645.138671875 992.083984375 699.21875 1027.22949219 763.56640625 1037.19726562 c 0
 775.59375 1039.06054688 787.793945312 1040.0078125 800.04296875 1040 c 0
 812.28125 1039.99316406 824.408203125 1039.03027344 836.270507812 1037.22265625 c 0
 900.96875 1027.35644531 955.341796875 993.573242188 995.989257812 952.391601562 c 0
 1036.671875 911.17578125 1065.01855469 861.671875 1083.34570312 810.388671875 c 0
 1119.93847656 708 1118.29199219 595.784179688 1085.19628906 494.436523438 c 1
EndSplineSet
Fore
SplineSet
224 309 m 0
 224 215 260 104 348 104 c 0
 418 104 475.032367088 170.989586498 494 230 c 0
 512 286 512 351 512 421 c 2
 512 512 l 1
 377 512 l 2
 314 512 292.694536638 503.2127772 267 466 c 0
 238 424 224 367 224 309 c 0
574 148 m 1
 527.038961039 48.6567164179 448.770562771 -16 348 -16 c 0
 177 -16 96 144 96 309 c 0
 96 443 151.053578085 564.881380562 253 611 c 0
 295 630 337 632 370 632 c 2
 512 632 l 1
 512 748 l 2
 512 862 492 924 352 924 c 0
 306 924 204 914 128 904 c 1
 128 1026 l 1
 203 1035 303 1044 352 1044 c 0
 440 1044 533 1034 593 907 c 1
 603 907 l 1
 643.817258883 990 704.568527919 1040 790 1040 c 0
 927.640449438 1040 1006.85561971 917.085778426 1035 802 c 0
 1053.78972986 725.166519711 1054 649 1054 577 c 2
 1054 512 l 1
 640 512 l 1
 640 469 l 2
 640 289 654 104 832 104 c 0
 888.392523364 104 962.093457944 118.655172414 1024 129 c 1
 1024 7 l 1
 961.447614108 -2.64516129032 890.78843737 -16 829 -16 c 0
 723.581673307 -16 635.736972112 33.9701492537 584 148 c 1
 574 148 l 1
927 632 m 1
 924.6 729 911.781062215 817.46851813 875 873 c 0
 852.393617021 902 824.361702128 920 790 920 c 0
 716.563380282 920 675.504711299 842.046361236 658 773 c 0
 646 729 642 682 641 632 c 1
 927 632 l 1
EndSplineSet
Layer: 2
SplineSet
576 346 m 0
 576 167.80859375 478.196567156 44 338 44 c 1024
  Spiro
    576 346 {
    545.51 188.642 o
    461.907 82.6234 o
    338 44 o
    0 0 z
  EndSpiro
338 44 m 0
 242.508605957 44 160 152.229434743 160 308 c 0
 160 463.770565257 242.508605957 572 338 572 c 1024
  Spiro
    338 44 {
    249.49 77.7634 o
    184.881 170.442 o
    160 308 o
    184.881 445.558 o
    249.49 538.237 o
    338 572 o
    0 0 z
  EndSpiro
EndSplineSet
Layer: 3
SplineSet
542 572 m 1
 370 572 l 2
 339.600740207 572 308.456847654 569.910943981 280.804606151 557.282858779 c 0
 253.152364649 544.654773577 230.198053656 523.066749818 213 498 c 0
 175.382112514 443.170645867 159.949516345 375.20056954 159.949516345 308.6078772 c 0
 159.949516345 306.403566744 159.966425868 304.200765491 160 302 c 0
 160.599860097 262.679507062 166.808150315 223.387428346 179 186 c 0
 192.649498949 144.142556126 215.10374845 103.844106559 250 77 c 0
 277.75816851 55.6468975818 312.721214728 43.999789155 347.741934342 43.999789155 c 0
 390.393471704 43.999789155 432.009947744 60.3937949605 466 86 c 0
 507.693471129 117.409530133 538.260590902 162.556129793 555 212 c 0
 567.348454543 248.474130007 572.413976042 287.046428029 574.445675889 325.500539449 c 0
 575.82785287 351.661090529 576.048789923 377.86028297 576.048789923 404.062428027 c 0
 576.048789923 416.375534519 576 428.689293042 576 441 c 2
 576 753 l 1025
  Spiro
    542 572 {
    370 572 ]
    213 498 o
    160 302 o
    179 186 o
    250 77 o
    348 44 o
    466 86 o
    555 212 o
    576 441 [
    576 753 ]
    0 0 z
  EndSpiro
EndSplineSet
Layer: 4
SplineSet
800 980 m 4
 791.299088765 980.005187612 782.59837989 979.331820742 774 978 c 4
 728.431927882 970.941867608 686.8771698 945.040805592 656.778955593 910.10709793 c 4
 626.680741386 875.173390268 607.461417315 831.874720454 595.932032766 787.22788718 c 4
 572.873263667 697.934220632 576.062035716 604.222892329 576 512 c 4
 575.963299878 457.441245636 575.650207622 402.820586767 579.394223816 348.390435496 c 4
 583.13824001 293.960284225 591.440781919 239.118451097 613 189 c 4
 628.197795771 153.669869692 650.338293265 120.983328648 679.622613196 96.0510261063 c 4
 708.906933127 71.1187235647 745.119884156 54.6549175429 783 48 c 4
 799.161220029 45.1607376511 815.591278128 43.9829696155 832 44 c 4
 856.766026929 44.0257043153 881.455302651 46.6962774645 906 50 c 4
 956.838010978 56.842809269 1007.48241981 65.094861564 1058 74 c 4
 1110.82492531 83.3118726392 1163.30704065 94.6814225791 1215 109 c 5
 1024 512 l 5
 1053.42395838 602.102908533 1054.56024837 702.07079285 1022.66145778 791.327560728 c 4
 1006.71206249 835.955944668 982.30785238 877.911748107 949.015294006 911.641281458 c 4
 915.722735631 945.370814809 872.851205369 970.855742253 826 978 c 4
 817.39890511 979.311565803 808.700517873 979.994812623 800 980 c 4
  Spiro
    800 980 o
    774 978 o
    576 512 o
    613 189 o
    783 48 o
    832 44 o
    906 50 o
    1058 74 o
    1215 109 v
    1024 512 v
    826 978 o
    0 0 z
  EndSpiro
EndSplineSet
EndChar
StartChar: idieresis
Encoding: 239 239 148
Width: 1152
VWidth: 0
Flags: W
HStem: 0 120<256 512 640 896> 904 120<256 512> 1200 224<261.032 442.968 709.032 890.968>
VStem: 240 224<1221.03 1402.97> 512 128<120 904> 688 224<1221.03 1402.97>
CounterMasks: 1 1c
LayerCount: 5
Back
Fore
SplineSet
256 0 m 1
 256 120 l 1
 512 120 l 1
 512 904 l 1
 256 904 l 1
 256 1024 l 1
 640 1024 l 1
 640 120 l 1
 896 120 l 1
 896 0 l 1
 256 0 l 1
800 1424 m 0
 866 1424 912 1378 912 1312 c 0
 912 1246 866 1200 800 1200 c 0
 734 1200 688 1246 688 1312 c 0
 688 1378 734 1424 800 1424 c 0
352 1424 m 0
 418 1424 464 1378 464 1312 c 0
 464 1246 418 1200 352 1200 c 0
 286 1200 240 1246 240 1312 c 0
 240 1378 286 1424 352 1424 c 0
EndSplineSet
Layer: 2
Layer: 3
Layer: 4
EndChar
StartChar: thorn
Encoding: 254 254 163
Width: 1152
VWidth: 0
Flags: W
HStem: -16 120<483.616 706.022> 920 120<483.616 706.022>
VStem: 256 128<212.637 811.363> 800 128<213.326 810.674>
LayerCount: 5
Back
Fore
SplineSet
612 -16 m 0
 743 -16 853 71 900 221 c 0
 928 311 928 400 928 512 c 0
 928 624 928 713 900 803 c 0
 853 953 743 1040 612 1040 c 0
 529 1040 453 991 394 899 c 1
 384 899 l 1
 384 1536 l 1
 256 1536 l 1
 256 -512 l 1
 384 -512 l 1
 384 125 l 1
 394 125 l 1
 453 33 529 -16 612 -16 c 0
592 104 m 0
 496 104 436 177 410 256 c 0
 385 332 384 420 384 512 c 0
 384 604 385 692 410 768 c 0
 436 847 496 920 592 920 c 0
 688 920 748 847 774 768 c 0
 799 692 800 604 800 512 c 0
 800 420 799 332 774 256 c 0
 748 177 688 104 592 104 c 0
EndSplineSet
Layer: 2
Layer: 3
Layer: 4
EndChar
StartChar: imacron
Encoding: 299 299 229
Width: 1152
VWidth: 0
Flags: W
HStem: 0 120<256 512 640 896> 904 120<256 512> 1156 120<256 896>
VStem: 512 128<120 904>
LayerCount: 5
Back
Fore
SplineSet
256 1276 m 1
 896 1276 l 1
 896 1156 l 1
 256 1156 l 1
 256 1276 l 1
256 0 m 1
 256 120 l 1
 512 120 l 1
 512 904 l 1
 256 904 l 1
 256 1024 l 1
 640 1024 l 1
 640 120 l 1
 896 120 l 1
 896 0 l 1
 256 0 l 1
EndSplineSet
Layer: 2
Layer: 3
Layer: 4
EndChar
StartChar: dotlessi
Encoding: 305 305 129
Width: 1152
VWidth: 0
Flags: W
HStem: 0 120<256 512 640 896> 904 120<256 512>
VStem: 512 128<120 904>
AnchorPoint: "top" 576 1024 basechar 0
LayerCount: 5
Back
Fore
SplineSet
256 0 m 1
 256 120 l 1
 512 120 l 1
 512 904 l 1
 256 904 l 1
 256 1024 l 1
 640 1024 l 1
 640 120 l 1
 896 120 l 1
 896 0 l 1
 256 0 l 1
EndSplineSet
Layer: 2
Layer: 3
Layer: 4
EndChar
StartChar: Obreve
Encoding: 334 334 251
Width: 1152
VWidth: 0
Flags: W
HStem: -16 120<408.149 743.851> 1176 120<408.149 743.851> 1392 120<418.746 733.254>
VStem: 112 128<298.492 981.508> 236 128<1563.69 1664> 788 128<1563.69 1664> 912 128<298.492 981.508>
LayerCount: 5
Back
Fore
SplineSet
788 1664 m 1xec
 916 1664 l 1
 916 1496 764 1392 576 1392 c 0
 388 1392 236 1496 236 1664 c 1
 364 1664 l 1
 364 1578 433 1512 576 1512 c 0
 719 1512 788 1578 788 1664 c 1xec
112 640 m 0xf2
 112 744 113 853 142 962 c 0
 193 1153 344 1296 576 1296 c 0
 808 1296 959 1153 1010 962 c 0
 1039 853 1040 744 1040 640 c 0
 1040 536 1039 427 1010 318 c 0
 959 127 808 -16 576 -16 c 0
 344 -16 193 127 142 318 c 0
 113 427 112 536 112 640 c 0xf2
240 640 m 0
 240 537 242 438 266 348 c 0
 304 206 406 104 576 104 c 0
 746 104 848 206 886 348 c 0
 910 438 912 537 912 640 c 0
 912 743 910 842 886 932 c 0
 848 1074 746 1176 576 1176 c 0
 406 1176 304 1074 266 932 c 0
 242 842 240 743 240 640 c 0
EndSplineSet
Layer: 2
Layer: 3
Layer: 4
EndChar
StartChar: rcaron
Encoding: 345 345 262
Width: 1152
VWidth: 0
Flags: W
HStem: 0 21G<256 384> 920 120<504.949 892.248> 1004 20G<256 384>
VStem: 256 128<0 782.495 876 1024>
LayerCount: 5
Back
Fore
SplineSet
497 1152 m 1x90
 655 1152 l 1
 952 1408 l 1
 794 1408 l 1
 576 1244 l 1
 358 1408 l 1
 200 1408 l 1
 497 1152 l 1x90
256 1024 m 1xb0
 384 1024 l 1xb0
 384 876 l 1
 394 876 l 1
 460 982 537 1040 665 1040 c 0
 737 1040 818 1034 896 1026 c 1
 896 903 l 1
 814 913 730 920 665 920 c 0xd0
 589 920 535 903 491 866 c 0
 385 778 384 612 384 535 c 2
 384 0 l 1
 256 0 l 1
 256 1024 l 1xb0
EndSplineSet
Layer: 2
Layer: 3
Layer: 4
EndChar
StartChar: Tcaron
Encoding: 356 356 288
Width: 1152
VWidth: 0
Flags: W
HStem: 0 21G<512 640> 1160 120<128 512 640 1024>
VStem: 512 128<0 1160>
LayerCount: 5
Back
Fore
SplineSet
497 1408 m 1
 655 1408 l 1
 952 1664 l 1
 794 1664 l 1
 576 1500 l 1
 358 1664 l 1
 200 1664 l 1
 497 1408 l 1
1024 1280 m 1
 1024 1160 l 1
 640 1160 l 1
 640 0 l 1
 512 0 l 1
 512 1160 l 1
 128 1160 l 1
 128 1280 l 1
 1024 1280 l 1
EndSplineSet
Layer: 2
Layer: 3
Layer: 4
EndChar
StartChar: uni0237
Encoding: 567 567 294
Width: 1152
VWidth: 0
Flags: HW
HStem: -528 120<258.716 579.345> 898 126<384 640>
VStem: 640 128<-347.784 898>
LayerCount: 5
Back
Fore
SplineSet
256 -365 m 5
 311 -387 380 -408 448 -408 c 4
 515 -408 565 -384 597 -346 c 4
 640 -294 640 -230 640 -142 c 6
 640 898 l 5
 384 898 l 5
 384 1024 l 5
 768 1024 l 5
 768 -152 l 6
 768 -243 768 -338 700 -420 c 4
 648 -483 564 -528 458 -528 c 4
 383 -528 316 -513 256 -493 c 5
 256 -365 l 5
EndSplineSet
Layer: 2
Layer: 3
Layer: 4
EndChar
StartChar: uni0302
Encoding: 770 770 107
Width: 1152
VWidth: 0
Flags: W
HStem: 1280 256
AnchorPoint: "top" 576 1152 mark 0
LayerCount: 5
Back
Fore
SplineSet
497 1536 m 5
 655 1536 l 5
 952 1280 l 5
 794 1280 l 5
 576 1443.96289062 l 5
 358 1280 l 5
 200 1280 l 5
 497 1536 l 5
EndSplineSet
Layer: 2
Layer: 3
Layer: 4
EndChar
StartChar: tildecomb
Encoding: 771 771 108
Width: 1152
VWidth: 0
Flags: W
HStem: 1284 120<623.658 756.749> 1412 120<395.276 528.342>
VStem: 253 128<1305 1405.1> 771 128<1411.78 1511>
AnchorPoint: "top" 576 1152 mark 0
LayerCount: 5
Back
SplineSet
189 184 m 1
 241.918512179 221.576800672 280.028908131 278.445033755 298.081531226 340.786734721 c 0
 316.134154322 403.128435687 312.992170989 469.220974177 317 534 c 0
 319.458688107 573.740073721 326.371748657 614.58154942 348.202264688 647.879404852 c 0
 359.117522703 664.528332568 373.666943612 678.905417577 390.938708129 688.805710609 c 0
 408.255839507 698.732008234 428.137026783 703.98824662 448.134716675 704.000079715 c 0
 472.512297698 704.000079715 496.467141929 696.171113016 517.659320037 684.119788522 c 0
 538.890534679 672.046265181 557.539439413 655.991939969 575.999999999 640.000000001 c 0
 594.460560585 624.008060033 613.109465319 607.95373482 634.340679962 595.880211478 c 0
 655.53285807 583.828886984 679.487702301 575.999920285 703.865283326 575.999920285 c 0
 723.863161084 576.011753491 743.743926168 581.267857449 761.061291871 591.194289391 c 0
 778.333056388 601.094582423 792.882477297 615.471667432 803.797735312 632.120595148 c 0
 825.628251343 665.41845058 832.541311893 706.259926279 835 746 c 0
 839.007829011 810.779025823 835.865845678 876.871564313 853.918468774 939.213265279 c 0
 871.97109187 1001.55496624 910.081487821 1058.42319933 963 1096 c 1
 189 184 l 1
  Spiro
    189 184 v
    317 534 o
    448 704 o
    704 576 o
    835 746 o
    963 1096 v
    0 0 z
  EndSpiro
EndSplineSet
Fore
SplineSet
448 1412 m 0
 397 1412 384 1353 381 1299 c 1
 253 1305 l 1
 257 1423 319 1532 448 1532 c 0
 594 1532 627 1404 704 1404 c 0
 755 1404 768 1463 771 1517 c 1
 899 1511 l 1
 896 1395 833 1284 704 1284 c 0
 558 1284 525 1412 448 1412 c 0
EndSplineSet
Layer: 2
SplineSet
380.892578125 530.525390625 m 5
 253.107421875 537.474609375 l 5
 255.7890625 580.80859375 262.749023438 632.122070312 293.677734375 679.296875 c 4
 309.21875 703.002929688 330.389648438 724.424804688 357.553710938 739.99609375 c 4
 384.881835938 755.661132812 416.154296875 763.981445312 448.114257812 764 c 5
 487.23828125 764 522.134765625 751.750976562 550.849609375 735.419921875 c 4
 579.360351562 719.208007812 600.938476562 700.08984375 619.434570312 684.067382812 c 4
 637.850585938 668.11328125 653.580078125 655.115234375 667.532226562 647.180664062 c 4
 681.1640625 639.428710938 694.234375 636 703.846679688 636 c 5
 711.880859375 636.004882812 720.370117188 638.196289062 727.67578125 642.383789062 c 4
 735.05859375 646.616210938 742.985351562 653.946289062 749.2734375 663.538085938 c 4
 762.005859375 682.958984375 768.87109375 713.328125 771.107421875 749.474609375 c 5
 898.892578125 742.525390625 l 5
 896.2109375 699.19140625 889.25 647.876953125 858.322265625 600.702148438 c 4
 842.780273438 576.997070312 821.607421875 555.57421875 794.447265625 540.004882812 c 4
 767.125 524.34375 735.825195312 516.017578125 703.90234375 516 c 4
 664.7265625 516 629.905273438 528.227539062 601.149414062 544.580078125 c 4
 572.638671875 560.79296875 551.071289062 579.90234375 532.565429688 595.93359375 c 4
 514.139648438 611.89453125 498.420898438 624.884765625 484.46875 632.818359375 c 4
 470.790039062 640.59765625 457.810546875 644 448.134765625 644 c 4
 440.141601562 643.995117188 431.622070312 641.799804688 424.323242188 637.616210938 c 4
 416.944335938 633.38671875 409.015625 626.053710938 402.7265625 616.461914062 c 4
 389.995117188 597.041015625 383.12890625 566.671875 380.892578125 530.525390625 c 5
EndSplineSet
Layer: 3
Layer: 4
EndChar
StartChar: uni030A
Encoding: 778 778 155
Width: 1152
VWidth: 0
Flags: W
HStem: 1136 100<491.282 660.721> 1452 100<491.279 660.718>
VStem: 368 108<1249.5 1438.5> 676 108<1249.5 1438.5>
AnchorPoint: "top" 576 1152 mark 0
LayerCount: 5
Back
SplineSet
576 1492 m 4
 660.825 1492 720 1431.32578125 720 1344 c 4
 720 1256.67421875 660.825 1196 576 1196 c 4
 491.175 1196 432 1256.67421875 432 1344 c 4
 432 1431.32578125 491.175 1492 576 1492 c 4
EndSplineSet
Fore
SplineSet
576 1452 m 0
 518.136230469 1452 476 1418.05704013 476 1344 c 0
 476 1269.96453303 518.062988281 1236 576 1236 c 4
 633.864990234 1236 676 1269.94176136 676 1344 c 0
 676 1418.03546697 633.937011719 1452 576 1452 c 0
576 1552 m 0
 699.30078125 1552 784 1458.32519531 784 1344 c 0
 784 1229.69140625 699.358398438 1136 576 1136 c 0
 452.69921875 1136 368 1229.67382812 368 1344 c 0
 368 1458.30761719 452.640625 1552 576 1552 c 0
EndSplineSet
Layer: 2
Layer: 3
Layer: 4
EndChar
StartChar: uni0327
Encoding: 807 807 171
Width: 1152
VWidth: 0
Flags: W
HStem: -400 120<258.23 483.488> -20 20G<512 640>
VStem: 512 128<-233.261 0>
AnchorPoint: "bottom" 576 0 mark 0
LayerCount: 5
Back
Fore
SplineSet
640 -105 m 2
 640 -165 639.72730588 -234.798656306 588 -305 c 0
 546 -362 474.005859375 -400 384 -400 c 0
 349.496750412 -400 303.324784805 -392.839651533 256 -382.889197435 c 1
 256 -260.49285078 l 1
 303.853230632 -271.694958014 350.356325241 -280 384 -280 c 0
 431 -280 462.879664639 -262.909014584 484 -235 c 0
 512 -198 512 -155 512 -105 c 2
 512 0 l 1
 640 0 l 1
 640 -105 l 2
EndSplineSet
Layer: 2
Layer: 3
Layer: 4
EndChar
StartChar: asterisk.alt
Encoding: 1114112 -1 101
Width: 1152
VWidth: 0
Flags: HW
HStem: 1388 20G<318.358 364.534 788.402 834.642>
VStem: 512 128<512 906>
LayerCount: 5
Back
Fore
SplineSet
512 906 m 1
 144 786 l 1
 102 899 l 1
 476 1021 l 1
 244 1341 l 1
 350 1408 l 1
 576 1097 l 1
 803 1408 l 1
 909 1341 l 1
 676 1021 l 1
 1050 899 l 1
 1008 786 l 1
 640 906 l 1
 640 512 l 1
 512 512 l 1
 512 906 l 1
EndSplineSet
Layer: 2
Layer: 3
Layer: 4
EndChar
